<?xml version="1.0" encoding="UTF-8"?><svg id="Layer_1" xmlns="http://www.w3.org/2000/svg" viewBox="0 0 128 128"><defs><style>.cls-1{fill:#060303;}.cls-2{fill:#8b8b8b;}.cls-3{fill:#9c9c9c;}.cls-4{fill:#838383;}.cls-5{fill:#4a4a4a;}.cls-6{fill:#3e3e3e;}.cls-7{fill:#7e7e7e;}.cls-8{fill:#424242;}.cls-9{fill:#262626;}.cls-10{fill:#e18036;}.cls-11{fill:#fcdfc8;}.cls-12{fill:#909090;}.cls-13{fill:#656565;}.cls-14{fill:#373737;}.cls-15{fill:#939393;}.cls-16{fill:#736357;}.cls-17{fill:#d0a87e;}.cls-18{fill:#555;}.cls-19{fill:#2b2b2b;}.cls-20{fill:#6d6d6d;}.cls-21{fill:#333;}.cls-22{fill:#505150;}.cls-23{fill:#a67c52;}.cls-24{fill:#747474;}.cls-25{fill:#888;}.cls-26{fill:#ababab;}.cls-27{fill:#a83708;}.cls-28{fill:#5d5d5d;}.cls-29{fill:#b5b4b5;}.cls-30{fill:#7a7a7a;}.cls-31{fill:#bebebe;}.cls-32{fill:#989898;}</style></defs><rect class="cls-23" width="128" height="128" rx="24" ry="24"/><rect class="cls-16" x="8" y="8" width="112" height="112" rx="16" ry="16"/><path class="cls-27" d="M79.66,28.52c2.36,1.89,4.13,4.78,4.23,7.92.02.57-.24,1.47.13,1.85.43.44,1.24.33,1.43-.28.24-.78,0-2.57-.15-3.4.92-.07,1.93.31,2.78.67,3.94,1.7,6.53,7.01,6.21,11.18-.17,2.28-1.91,4.74-3.85,5.89-.6-.4-2.24-2.32-2.91-1.21-.58.96.7,1.47,1.24,2.01,2.64,2.65,4.72,7.02,3.41,10.75-1.09,3.11-4.57,6.07-8.05,5.64-.62-.08-2.52-1.01-2.74-1.59-.1-.27.13-1.22.14-1.56.11-3.84-.62-7.36-2.56-10.68.74-.77,1.24-1.97,1.41-3.03.11-.68.26-2.49-.71-2.56-1.28-.08-.81,1.65-1,2.54-.36,1.69-1.45,2.54-3.06,2.99-3.07.87-6.09-.24-8.32-2.35-.61-.58-1.08-1.75-2.03-1.08-.74.53-.18,1.8-.19,2.45-.03,2.08-1.23,3.77-3.15,4.51-3.77,1.45-6.74-.47-6.31-4.6.07-.71.92-2.17.11-2.59-1.09-.57-1.6,1.17-2.24,1.83-2.37,2.47-8.27,2.97-9.73-.75-.2-.5-.32-1.52-.51-1.85-.32-.54-1.35-.42-1.46.14-.23,1.19.74,3.43,1.57,4.28.2.21.87.57.88.81,0,.13-.86,1.97-.99,2.32-.56,1.51-1,3.25-1.09,4.86-.08,1.4.06,2.82.06,4.21-1.85.36-4.02.53-5.79-.18-4.42-1.77-3.1-8.29.82-9.88.49-.2,1.4-.19,1.51-.76.16-.81-.24-.82-.55-1.34-1.81-3.07-.74-7.22,2.52-8.79.57-.27,2.27-.6,2.52-.98.36-.55-.08-1.18-.14-1.74-.05-.48-.06-1.6,0-2.07.27-1.95,3.32-3.08,5.03-2.86.71.09,2.33,1.03,2.68-.11.16-.54.09-.87.38-1.5,1.36-2.94,4.33-3.57,7.15-2.25.87.41,1.9,1.57,2.85,1,.84-.51.23-1.17.16-1.83-.3-2.7,1.86-5.39,3.94-6.83,4.54-3.13,10.16-2.56,14.35.8Z"/><path class="cls-1" d="M92.9,52.48c-.11.1-.17.27-.31.39-.17.15-1.12.78-1.14.85,2.23,3.25,3.71,6.93,2.27,10.85-.77,2.09-2.47,4.1-4.36,5.28-1.5.93-3.34,1.49-5.1,1.28-.11.11.94,1.33,1.08,1.52,2.2,3.11,4.5,8.48,3.25,12.29-.53,1.61-2.03,2.64-3.71,2.72-.53.03-.98-.12-1.52-.1-.47.02-.93.21-1.42.2-1.34-.02-2.44-.84-3.36-1.71.07.44-.08.86-.1,1.27-.19,3.97.21,8.12,0,12.09-.09,1.79-.2,3.17-2.02,3.94-1.55.66-5.76.33-7.58.17-4.1-.37-4.22-3-6.59-5.41-.07-.07-.08-.19-.22-.16-.93,1.25-1.79,2.73-2.84,3.87s-1.8,1.59-3.41,1.79c-1.76.22-6.07.63-7.61.14-2.55-.81-2.26-2.81-2.37-5-.14-2.91-.22-5.86-.29-8.77-.03-1.21.08-2.43-.09-3.64-.98.97-1.89,1.75-3.35,1.8-.58.02-1.04-.2-1.52-.2-1.42,0-2.12.34-3.52-.45-3.47-1.97-1.73-8.32-.43-11.22,1.18-2.63,2.67-4.53,4.81-6.43.06-.06.18,0,.12-.22-1.06.14-2.19.26-3.26.19-8.01-.55-8.21-10.51-1.84-13.56-.1-.57-.39-1.07-.55-1.62-1.19-4.25,1.23-8.71,5.54-9.76-.06-1.08-.19-2.15.04-3.22.71-3.28,4.86-4.58,7.81-3.86,1.03-3.14,3.97-5.24,7.33-4.7,1.05.17,2.02.63,2.99,1.03.13-4.65,4.26-8.38,8.49-9.6,6.74-1.96,14.15,1.74,16.67,8.24,5.4.31,9.26,4.4,10.64,9.39,1.13,4.08.51,7.39-2.57,10.33ZM79.66,28.52c-4.19-3.36-9.81-3.93-14.35-.8-2.09,1.44-4.24,4.13-3.94,6.83.07.66.69,1.32-.16,1.83-.95.57-1.98-.59-2.85-1-2.82-1.32-5.79-.68-7.15,2.25-.29.64-.22.97-.38,1.5-.35,1.14-1.97.2-2.68.11-1.71-.21-4.76.92-5.03,2.86-.06.47-.06,1.59,0,2.07.06.56.5,1.19.14,1.74-.25.38-1.96.7-2.52.98-3.25,1.57-4.33,5.71-2.52,8.79.31.52.71.52.55,1.34-.11.57-1.02.56-1.51.76-3.93,1.59-5.24,8.11-.82,9.88,1.77.71,3.95.54,5.79.18,0-1.4-.14-2.82-.06-4.21.09-1.61.54-3.35,1.09-4.86.13-.35.99-2.19.99-2.32-.01-.24-.68-.6-.88-.81-.83-.86-1.8-3.1-1.57-4.28.11-.56,1.13-.67,1.46-.14.2.33.31,1.35.51,1.85,1.46,3.72,7.36,3.23,9.73.75.63-.66,1.14-2.4,2.24-1.83.81.42-.04,1.88-.11,2.59-.43,4.13,2.54,6.05,6.31,4.6,1.92-.74,3.12-2.44,3.15-4.51,0-.65-.56-1.92.19-2.45.94-.67,1.42.51,2.03,1.08,2.23,2.11,5.26,3.22,8.32,2.35,1.61-.46,2.7-1.3,3.06-2.99.19-.9-.27-2.63,1-2.54.97.06.82,1.87.71,2.56-.17,1.05-.67,2.26-1.41,3.03,1.94,3.32,2.67,6.84,2.56,10.68,0,.34-.24,1.29-.14,1.56.22.58,2.12,1.52,2.74,1.59,3.48.43,6.96-2.53,8.05-5.64,1.31-3.73-.78-8.1-3.41-10.75-.53-.54-1.82-1.04-1.24-2.01.67-1.12,2.31.81,2.91,1.21,1.94-1.15,3.68-3.6,3.85-5.89.31-4.17-2.27-9.48-6.21-11.18-.84-.37-1.86-.74-2.78-.67.14.84.39,2.62.15,3.4-.19.61-1,.72-1.43.28-.37-.38-.11-1.28-.13-1.85-.1-3.13-1.87-6.02-4.23-7.92ZM76.88,79.93v-4.39c0-.13.51-.48.69-.24l.12.19c.23,1.55.36,3.11.64,4.65.25,1.37.64,3.76,1.53,4.8.79.92,2.03,1.53,3.23.95.36-.17.93-1.24.9-1.66-.05-.65-1.12-1.23-1.59-1.63-.07-.06-.18,0-.12-.22,1.02.33,2,.11,3.03,0,.28.28-.81.71-1.04.66-.1.12.45.57.55.72.51.8-.21,1.55-.65,2.2,3.06.3,3.33-2.4,3.01-4.75-.46-3.44-2.69-7.63-5.28-9.93-.41-.37-2.36-1.7-2.45-2,.82-4.36.36-8.69-1.82-12.58l-1.79.56c1.2,1.39,1.55,3.15.58,4.78-1.34,2.28-4.67,2.47-6.3.4-1.3-1.66-.97-3.81.42-5.28-1.41-.45-2.73-1.17-3.83-2.17-.27,7.41-12.46,9.02-12.82.76l-1.89.95c-.06.07.97.73,1.09.85,1.94,1.87,1.27,5.46-1.32,6.33-3.63,1.22-6.59-2.59-4.48-5.8.17-.26.51-.38.46-.72l-1.83-.27c-1.78,2.96-2.39,6.59-2.03,10.03,2.66,2.63,6,4.87,9.28,6.69,7.28,4.05,15.43,5.67,23.71,6.12ZM41.7,82.76c.05.19-.08.18-.16.27-.46.46-1.63,1.08-1.53,1.83.03.24.73,1.34.93,1.44.69.34,1.83.16,2.45-.28,2.99-2.14,2.76-9.76,2.02-12.96-.28-1.21-.71-2.05-1.45-3.04-1,.76-2.03,1.52-2.88,2.45-2.46,2.7-5.01,8.14-4.26,11.81.35,1.72,1.36,2.28,3.08,2.17-.14-.38-.48-.62-.65-1-.45-1-.08-1.21.56-1.92-.24.02-1.55-.39-1.04-.71.07-.04.53.13.71.14.74.05,1.51.03,2.22-.19ZM47.09,74.64c.5-.4.96-.59,1.61-.43.33.08.49.38.87.32.58-.1.84-.77.35-1.16-.54-.43-1.62-.93-2.26-1.33-.55-.34-1.07-.73-1.62-1.08.54,1.17.81,2.42,1.04,3.68ZM59.64,79.2c.82.97.09,2.11-1.01,2.38-3,.74-5.73-1.43-4.87-4.58.08-.31.48-.98.51-1.2.02-.25-1.17-.65-1.41-.79-.68,2.28-3.81,3.2-5.58,1.61.11,2.71-.22,5.38-.19,8.08.01,1.4.16,2.85.2,4.24s-.04,2.81.09,4.21c.71-.4,2.46-2.88,3.1-3.01.17-.03.24-.02.4.03.22.08,2.01,1.46,2.08,1.37-.19-.84-.41-1.7-.26-2.57.2-1.22,1.86-1.54,2.57-.54.45.64.08,2.47,1.09,2.78.12.04,1.13.27,1.23.28.28.02.51-.39.8-.13l3.72,3.48,3.7-3.56c.12-.04.23-.03.35-.02.4.05,1.54,1.32,1.95,1.65.11.09.38.32.51.31l4.84-3.3.52.06c-.53-2.11.77-4.4,2.92-4.88v-1.22c-2.4.48-4.5-.92-5.54-3.02-4.87-.72-9.72-1.79-14.21-3.83-.41-.04-1.14,1.62.04,1.76.84.1,1.78-.42,2.48.41ZM63.78,95.08c-.15.17-.8.82-.85.91-.03.07-.05.12,0,.19.93,1.18,1.75,2.48,2.71,3.63.39.47,1.19,1.43,1.7,1.71.95.51,2.75.36,3.83.42,1.29.08,4.22.56,5.21-.38.57-.55.39-2.74.42-3.55.04-1.11.26-2.27-.02-3.37-.42-.41-2.82-3.49-3.07-3.56-.18-.05-.47.25-.64.37-.95.69-2.05,1.94-2.99,2.49-.15.09-.53.14-.55.16-.04.06.02.24-.03.34s-.45.23-.59.22c-.3-.01-1.43-1.02-1.76-1.28-.1-.08-.13-.24-.21-.3-.13-.11-.51-.26-.68-.41-.86.72-1.71,1.56-2.47,2.4ZM47.97,101.81c.63.65,2.47.54,3.33.51,1.23-.05,2.74-.16,3.97-.29,1.83-.2,2.15-.57,3.26-1.94.8-.98,1.94-2.49,2.6-3.55.07-.12.25-.37.23-.5-.58-.43-2.84-3.14-3.27-3.26-.11-.03-.21-.03-.31.03-.58.49-1.15,1.11-1.75,1.56-.68.5-.61.64-1.36.14-1.28-.86-2.51-2.18-3.8-3.01-.37-.24-.63-.05-.91.26-.06.06-.05.21-.12.3-.39.46-2.39,2.69-2.46,3.03.15,1.75-.04,3.65.19,5.38.05.4.13,1.05.41,1.34Z"/><path class="cls-11" d="M76.88,79.93c-8.28-.45-16.44-2.07-23.71-6.12-3.28-1.82-6.62-4.06-9.28-6.69-.36-3.44.25-7.07,2.03-10.03l1.83.27c.05.34-.29.47-.46.72-2.1,3.21.85,7.02,4.48,5.8,2.6-.87,3.27-4.47,1.32-6.33-.12-.12-1.15-.77-1.09-.85l1.89-.95c.36,8.27,12.54,6.66,12.82-.76,1.1,1,2.42,1.73,3.83,2.17-1.39,1.47-1.72,3.62-.42,5.28,1.62,2.07,4.95,1.88,6.3-.4.96-1.63.61-3.4-.58-4.78l1.79-.56c2.18,3.89,2.64,8.22,1.82,12.58.09.3,2.04,1.64,2.45,2,2.59,2.3,4.83,6.49,5.28,9.93.31,2.35.04,5.05-3.01,4.75.43-.65,1.15-1.4.65-2.2-.1-.15-.66-.61-.55-.72.23.05,1.32-.38,1.04-.66-1.03.11-2.01.33-3.03,0-.06.22.05.16.12.22.47.4,1.54.98,1.59,1.63.03.42-.53,1.49-.9,1.66-1.2.57-2.43-.03-3.23-.95-.89-1.04-1.28-3.43-1.53-4.8-.28-1.54-.41-3.1-.64-4.65l-.12-.19c-.19-.23-.69.11-.69.24v4.39ZM62.87,62.58c-.1,0-.25.07-.4.07-.83,0-2.67-.14-3.36.14-.54.22-.66,1.01-.24,1.37.89.77,1.57.33,2.55.28.8-.04,1.95.23,2.63.08.62-.14,1.21-.9.81-1.53-.26-.41-1.51-.41-1.99-.41Z"/><path class="cls-1" d="M62.87,62.58c.48,0,1.74,0,1.99.41.4.63-.2,1.39-.81,1.53-.69.15-1.83-.12-2.63-.08-.98.05-1.66.49-2.55-.28-.42-.36-.31-1.16.24-1.37.69-.27,2.53-.14,3.36-.14.15,0,.3-.07.4-.07Z"/><path class="cls-11" d="M63.78,95.08c.76-.84,1.61-1.69,2.47-2.4.17.15.54.31.68.41.08.07.11.22.21.3.33.26,1.46,1.27,1.76,1.28.14,0,.54-.12.59-.22s-.01-.29.03-.34c.02-.02.4-.07.55-.16.94-.55,2.04-1.8,2.99-2.49.17-.12.46-.42.64-.37.25.06,2.65,3.15,3.07,3.56.28,1.11.06,2.26.02,3.37-.03.8.15,3-.42,3.55-.99.94-3.91.45-5.21.38-1.09-.06-2.88.09-3.83-.42-.51-.27-1.31-1.24-1.7-1.71-.96-1.16-1.78-2.45-2.71-3.63-.04-.07-.03-.12,0-.19.05-.09.7-.74.85-.91Z"/><path class="cls-11" d="M47.97,101.81c-.28-.29-.36-.94-.41-1.34-.22-1.73-.04-3.63-.19-5.38.06-.34,2.07-2.57,2.46-3.03.07-.08.07-.23.12-.3.28-.31.54-.5.91-.26,1.29.83,2.52,2.15,3.8,3.01.75.5.68.37,1.36-.14.6-.45,1.18-1.07,1.75-1.56.1-.06.2-.06.31-.03.43.12,2.69,2.83,3.27,3.26.02.12-.16.38-.23.5-.66,1.06-1.8,2.57-2.6,3.55-1.11,1.37-1.44,1.74-3.26,1.94-1.22.13-2.74.24-3.97.29-.86.04-2.7.14-3.33-.51Z"/><path class="cls-11" d="M41.7,82.76c-.71.22-1.48.24-2.22.19-.18-.01-.64-.19-.71-.14-.51.32.8.74,1.04.71-.64.71-1.01.92-.56,1.92.17.39.51.62.65,1-1.72.12-2.73-.45-3.08-2.17-.75-3.67,1.81-9.11,4.26-11.81.85-.94,1.88-1.69,2.88-2.45.74.98,1.17,1.83,1.45,3.04.73,3.2.97,10.82-2.02,12.96-.62.44-1.76.62-2.45.28-.2-.1-.9-1.2-.93-1.44-.1-.76,1.07-1.37,1.53-1.83.08-.08.21-.08.16-.27Z"/><path class="cls-10" d="M47.09,74.64c-.23-1.27-.5-2.51-1.04-3.68.55.35,1.07.73,1.62,1.08.64.4,1.72.9,2.26,1.33.49.39.23,1.07-.35,1.16-.38.06-.53-.24-.87-.32-.65-.16-1.11.04-1.61.43Z"/><path class="cls-10" d="M59.64,79.2c-.7-.83-1.64-.31-2.48-.41-1.18-.14-.44-1.79-.04-1.76,4.48,2.04,9.34,3.11,14.21,3.83,1.04,2.11,3.14,3.5,5.56,3.02v1.22c-2.16.48-3.47,2.76-2.93,4.88l-.52-.06-4.84,3.3c-.13.01-.39-.22-.51-.31-.41-.33-1.55-1.6-1.95-1.65-.12-.02-.23-.02-.35.02l-3.7,3.56-3.72-3.48c-.28-.25-.51.16-.8.13-.1,0-1.1-.24-1.23-.28-1.01-.32-.64-2.15-1.09-2.78-.71-1.01-2.37-.68-2.57.54-.15.88.07,1.73.26,2.57-.08.1-1.87-1.29-2.08-1.37-.16-.06-.23-.07-.4-.03-.63.13-2.39,2.6-3.1,3.01-.13-1.4-.05-2.8-.09-4.21s-.18-2.84-.2-4.24c-.03-2.7.3-5.37.19-8.08,1.78,1.59,4.9.67,5.58-1.61.24.14,1.43.54,1.41.79-.02.22-.42.89-.51,1.2-.86,3.16,1.87,5.33,4.87,4.58,1.09-.27,1.83-1.42,1.01-2.38ZM50.09,80.23c-.99.14-2.12,1.74-2.24,2.68-.35,2.67,1.68,4.21,4.2,4.01,1.21-.1,2.53-.98,1.82-2.3-.65-1.2-1.83-.46-2.77-.64-1.08-.2.18-1.23.37-1.52.73-1.1-.08-2.43-1.39-2.24ZM66.13,82.7c-.74.74-1.4,2.41-.37,3.18.61.45,1.47.35,1.98-.2.43-.46.19-1.25,1.12-1.01.47.12,1.02,1.05.49,1.38s-1.74.1-1.92,1.29c-.38,2.51,3.1,1.86,4.3.42,2.76-3.31-2.43-8.23-5.6-5.07ZM60.98,86.81c-1.62.74-1.17-.63-1.52-1.43-.55-1.25-2.42-.93-2.68.3-.66,3.15,2.95,5.3,5.63,3.63,1.73-1.08,1.99-3.33.77-4.9-1.38-1.77-3.65-.35-2.67,1.34.2.35.63.54.48,1.05Z"/><path class="cls-1" d="M66.13,82.7c3.16-3.16,8.36,1.75,5.6,5.07-1.2,1.44-4.68,2.09-4.3-.42.18-1.19,1.37-.94,1.92-1.29s-.02-1.26-.49-1.38c-.93-.25-.69.54-1.12,1.01-.51.55-1.37.65-1.98.2-1.03-.77-.38-2.44.37-3.18Z"/><path class="cls-1" d="M60.98,86.81c.15-.51-.28-.71-.48-1.05-.98-1.69,1.29-3.11,2.67-1.34,1.23,1.57.96,3.82-.77,4.9-2.67,1.67-6.29-.49-5.63-3.63.26-1.23,2.13-1.55,2.68-.3.35.79-.1,2.17,1.52,1.43Z"/><path class="cls-1" d="M50.09,80.23c1.31-.19,2.12,1.14,1.39,2.24-.19.29-1.45,1.31-.37,1.52.94.18,2.11-.56,2.77.64.71,1.31-.61,2.2-1.82,2.3-2.53.2-4.56-1.34-4.2-4.01.12-.94,1.25-2.54,2.24-2.68Z"/><path class="cls-12" d="M87.95,77c.38,2.13.31,4.37.35,6.56.03,2.68.06,5.54-.14,8.21-.05.27-.08,1.66-.31,1.62v-.07s-.05,0-.05,0c-.27-1.34-.26-2.86-.31-4.27-.05-1.97-.08-4-.02-5.96-.02-.3.12-1.22-.22-.99l.02-1.23h-.07s-.02,1.37-.02,1.37c-.07-.05-.15-.05-.23,0,.01-.52.03-1.04.05-1.56.08.05.2-.08.25-.08,0,0,.02.14.16.07s.15-.79.16-1c.04-.9.09-1.81.26-2.68h.12ZM87.93,83.8h-.07c-.07.94-.06,1.89,0,2.82h.07c.07-.94.07-1.89,0-2.82Z"/><path class="cls-3" d="M87.27,77c-.05.62-.17,1.16-.21,1.82-.06-.02-.09-.11-.16-.06-.09.07,0,.3-.09.28-.03-.15,0-.32-.11-.4l-.1.07c.03-.55.08-1.09.19-1.62-.07-.28-.35,1.82-.19,1.65,0,.04,0,.08-.02.11s-.04-.06-.05.07h-.05s0-.15,0-.15l-.16.07c.04-.6.07-1.31.24-1.86h.73ZM87.03,77.07c-.11-.09-.25,1.41-.19,1.56l.19-1.56Z"/><path class="cls-3" d="M84.09,77c-.07.43-.21.89-.21,1.36,0,.05-.02.16.04.13.06-.33.09-1.13.22-1.49h.21c-.01.15.06.16.05,0h.21c-.09.48-.15.84-.19,1.34-.09-.07-.13-.02-.21.04-.05-.23.24-1.31.09-1.23l-.21,1.86s-.05-.09-.05-.15l-.14.07c0-.09.04-.37-.05-.33.02-.13-.11-.23-.19-.22.05-.47.07-.95.21-1.37h.21Z"/><path class="cls-3" d="M85.38,77v.11c-.07.19-.15.9-.16,1.14,0,.07,0,.05.04.05.04-.32.07-.63.12-.95.02-.11.1-.23.05-.32v-.04h.21l.02.07c-.16.64-.19,1.39-.24,2.08l-.24.07c0-.11.04-.24.02-.37h-.05s0,.08,0,.11c-.07.02-.04-.14-.13-.11-.02,0-.03.14-.08.11.03-.66.09-1.36.24-1.97h.19Z"/><path class="cls-3" d="M83.01,77c-.13.54-.17,1.13-.24,1.71,0-.05-.02-.17-.02-.24l-.17.02c.04-.48.09-.94.19-1.39-.08-.24-.33,1.54-.19,1.54,0,.16-.03.1-.05.15-.02.08-.04.13-.05.22l-.21.04c.03-.67.09-1.41.26-2.04h.47Z"/><path class="cls-3" d="M81.69,77c.01.12-.29,1.09-.15,1.08.06-.37.1-.74.2-1.08h.21c-.11.55-.21,1.11-.24,1.71-.09.03-.02-.2-.08-.22-.08-.03-.02.25-.13.19.01-.15.03-.3.02-.45-.07-.02-.04.02-.05.07l-.24-.04c.04-.43.07-.88.21-1.26h.24Z"/><path class="cls-3" d="M84.87,77c-.12.68-.23,1.48-.26,2.19-.09-.04-.13-.03-.21.04.04-.65.1-1.7.28-2.23h.19Z"/><path class="cls-3" d="M85.13,77c-.04.65-.18,1.16-.21,1.86l-.21-.04c.05-.61.07-1.26.24-1.82h.19Z"/><path class="cls-3" d="M86.47,77c-.1.56-.2,1.26-.24,1.86l-.06-.11-.13.07c.05-.57.06-1.31.24-1.82h.19Z"/><path class="cls-3" d="M86.21,77c-.08.62-.2,1.18-.24,1.82-.08,0-.07-.2-.19-.15.02-.56.11-1.16.21-1.67h.21Z"/><path class="cls-3" d="M87.83,77c-.09.46-.15.93-.19,1.41-.11.04-.17.2-.26.26.02-.56.12-1.15.21-1.67h.24Z"/><path class="cls-3" d="M85.93,77c-.03.56-.17,1.11-.21,1.71l-.13-.07s-.03.14-.08.11c.04-.6.1-1.19.24-1.75h.19Z"/><path class="cls-3" d="M82.49,77c-.12.57-.21,1.02-.24,1.63-.09-.04-.08-.18-.21-.07.04-.5.09-1.12.24-1.56h.21Z"/><path class="cls-3" d="M83.29,77c-.14.48-.2,1.04-.24,1.56-.07-.03-.11-.1-.19-.07.04-.53.05-.98.21-1.49h.21Z"/><path class="cls-3" d="M82.2,77c-.05.48-.18.86-.21,1.37l-.14-.03c-.02.07,0,.17-.07.15.04-.53.09-.98.21-1.49h.21Z"/><path class="cls-3" d="M87.53,77c-.05.48-.18,1.02-.19,1.52-.05-.03-.06-.11-.07-.18l-.12.03c.05-.51.07-.89.19-1.37h.19Z"/><path class="cls-3" d="M83.55,77c-.08.45-.19.89-.21,1.37-.07-.09-.13.05-.21.04.04-.41.08-.82.14-1.23l.05-.02.02-.16h.21Z"/><path class="cls-3" d="M83.81,77c-.1.44-.15.94-.21,1.41,0-.06-.06-.14-.05-.22l-.14.07c.04-.44.1-.86.19-1.26h.21Z"/><path class="cls-7" d="M81.29,83.24c0,.14.01.88-.02,1l-.26-.04c.01-.24-.03-.5.02-.72,0,0,0-.21,0-.21l.26-.04Z"/><path class="cls-28" d="M81.26,86.1c0,.35,0,.69,0,1.04h-.24c0-.1.02-.26-.02-.33,0-.26-.01-.44.02-.71h.24Z"/><path class="cls-24" d="M81.26,84.25c0,.25,0,.5,0,.74l-.24.04c0-.13.02-.31-.02-.41v-.41l.26.04Z"/><path class="cls-15" d="M81.03,85.03c-.01.4.03.88-.02,1.26v-1.67c.04.1.02.28.02.41Z"/><path class="cls-31" d="M81.03,87.14c0,.19,0,.37,0,.56h-.02v-.89c.04.07.02.23.02.33Z"/><path class="cls-26" d="M83.34,77l-.02.16s-.06.03-.07.02c.02-.06.03-.12.05-.19h.05Z"/><path class="cls-26" d="M84.68,77c.02.09-.04.13-.05.15h-.05s.01-.1.02-.15h.07Z"/><path class="cls-26" d="M86.28,77s-.02.05-.02.07h-.05s0-.05,0-.07h.07Z"/><path class="cls-26" d="M86.54,77s-.02.05-.02.07h-.05s0-.05,0-.07h.07Z"/><path class="cls-26" d="M87.34,77s-.02.06-.02.07h-.05s0-.05,0-.07h.07Z"/><path class="cls-26" d="M87.6,77s0,.05,0,.07h-.07s0-.05,0-.07h.07Z"/><path class="cls-26" d="M83.88,77s-.02.05-.02.07h-.05s0-.05,0-.07h.07Z"/><path class="cls-26" d="M82.28,77s-.02.05-.02.07h-.05s0-.05,0-.07h.07Z"/><path class="cls-26" d="M85.2,77s0,.05,0,.07h-.07s0-.05,0-.07h.07Z"/><path class="cls-26" d="M84.94,77s-.02.05-.02.07h-.05s0-.05,0-.07h.07Z"/><path class="cls-26" d="M83.08,77s-.02.05-.02.07h-.05s0-.05,0-.07h.07Z"/><path class="cls-26" d="M85.74,77v.04s-.06.01-.07.04l-.02-.07h.09Z"/><path class="cls-26" d="M86,77s0,.05,0,.07h-.07s0-.05,0-.07h.07Z"/><path class="cls-26" d="M83.59,77c.01.05-.02.08-.02.11l-.02-.04s0-.05,0-.07h.05Z"/><path class="cls-26" d="M81.99,77c.01.05-.02.08-.02.11l-.02-.04s0-.05,0-.07h.05Z"/><path class="cls-26" d="M85.43,77c.01.05-.03.1-.05.11v-.11h.05Z"/><path class="cls-26" d="M81.73,77s-.02.06-.02.07h-.02s0-.05,0-.07h.05Z"/><path class="cls-26" d="M82.53,77s-.02.05-.02.07h-.02s0-.05,0-.07h.05Z"/><path class="cls-26" d="M84.4,77s0,.06,0,.07h-.05s0-.05,0-.07h.05Z"/><path class="cls-26" d="M84.14,77s-.02.06-.02.07h-.02s0-.05,0-.07h.05Z"/><path class="cls-9" d="M87.5,89.04c.03,1.07.05,2.35.16,3.38l-.24-.04c-.09-1.11-.14-2.19-.16-3.31l.24-.04Z"/><path class="cls-32" d="M87.15,78.37l.12-.03c.01.07.02.15.07.18-.02.29-.04.6-.05.89.06,0,.04,0,.05-.06.03-.22.03-.46.05-.69.08-.06.15-.22.26-.26-.04.42-.05.84-.07,1.26-.07-.02-.05.12-.1.17-.22.12-.19.1-.19.47-.1.02-.02-.25-.06-.33l-.18-.07c.03-.51.05-1.01.09-1.52Z"/><path class="cls-7" d="M87.46,83.21c0,.38,0,.77,0,1.15-.08-.04-.14-.15-.23-.07-.02.13.03.33-.03.44h-.02c-.05-.1-.01-.29-.02-.41l-.21.04c0-.35.01-.68.02-1.04h.21c0,.09-.01.83-.02.93h.07c0-.13.02-.92.02-1.04.07-.02.13-.04.22,0Z"/><path class="cls-15" d="M87.58,79.68c-.01.21-.01.93-.16,1s-.15-.07-.16-.07c-.05,0-.17.13-.25.08.01-.26.03-.52.05-.78l.18.07c.04.09-.04.36.06.33,0-.36-.03-.35.19-.47.05-.05.02-.19.1-.17Z"/><path class="cls-25" d="M87.46,83.21c-.08-.04-.15-.01-.22,0l.02-1.11c.06-.06.19-.06.22.1.02.19.03.81-.02,1.01Z"/><path class="cls-19" d="M87.36,92.31c.08.15.02.44.11.59.02-.17-.02-.35-.04-.52l.24.04c.02.14.05.33.07.48-.18-.07-.3.13-.47.11-.05-.27-.07-.39-.09-.67.08.02.13.07.19-.04Z"/><path class="cls-25" d="M87.19,82.24l-.02,1.08h-.21c0-.36,0-.72,0-1.08.08-.05.16-.05.23,0Z"/><path class="cls-14" d="M87.2,88.3c0,.13-.01.3.04.41.02,0,.01-.35.01-.41h.24c0,.16,0,.35,0,.48-.17,0-.32.06-.49.07v-.56h.21Z"/><path class="cls-31" d="M87.32,77.07c-.24,1.42-.27,2.89-.33,4.35h-.02c-.01-1.46.1-2.95.31-4.35h.05Z"/><path class="cls-22" d="M87.46,87.07c0,.22.02.44.02.67l-.22.03s-.01.14-.01.19h-.02c0-.06,0-.09-.05-.07-.02-.06.02-.13.02-.15.04-.2.02-.46.02-.67h.24Z"/><path class="cls-24" d="M87.46,84.36c0,.22,0,.45,0,.67h-.26c0-.26.03-.47.03-.74.09-.08.15.03.23.07Z"/><path class="cls-21" d="M87.74,92.9c.01.1.03.2.05.3l-.21.04-.09-.19.05.33c-.06,0-.13,0-.19,0,0-.06-.04-.11-.05-.15-.02-.08-.01-.16-.02-.22.17.02.29-.18.47-.11Z"/><path class="cls-20" d="M87.46,85.03c0,.2,0,.4,0,.59l-.26.04c0-.21,0-.42,0-.63h.26Z"/><path class="cls-13" d="M87.46,85.62c0,.19,0,.37,0,.56h-.24c0-.17-.02-.34-.02-.52l.26-.04Z"/><path class="cls-8" d="M87.48,87.74c0,.19,0,.37,0,.56h-.24c.01-.16-.03-.38.01-.52l.22-.03Z"/><path class="cls-28" d="M87.46,86.18c0,.17,0,.35,0,.52h-.24c0-.17,0-.35,0-.52h.24Z"/><polygon class="cls-31" points="87.21 80.86 87.28 80.87 87.24 83.39 87.17 83.39 87.21 80.86"/><path class="cls-18" d="M87.46,86.7c0,.12,0,.25,0,.37h-.24c0-.12,0-.25,0-.37h.24Z"/><path class="cls-19" d="M87.48,88.78c0,.06.02.16.02.26l-.24.04c0-.09,0-.17,0-.26.05,0,.14-.07.21-.04Z"/><path class="cls-29" d="M86.99,81.42c0,.32-.02.65-.02.97h-.02v-.97s.03,0,.05,0Z"/><path class="cls-14" d="M87.81,93.31s0,.05,0,.07c-.06.01-.16.04-.21.04l-.02-.19.21-.04s.02.04.02.11Z"/><path class="cls-22" d="M87.81,93.31h.05s0,.07,0,.07c-.02,0-.03,0-.05,0,0-.02,0-.05,0-.07Z"/><path class="cls-9" d="M81.07,88.93h.22s0,.09.01.11c.08,1.23.09,2.46.24,3.68-.08.05-.16.05-.24,0-.02-.13-.03-.24-.05-.37l.02-.07h-.05c-.05-.59-.17-1.6-.09-2.16h-.05c-.01-.4-.01-.79-.02-1.19Z"/><path class="cls-5" d="M81.55,87.18c0,.26,0,.52,0,.78l-.21.04c0-.14,0-.29,0-.43,0-.05.02-.14-.02-.13,0,.2-.02.39-.02.59l-.24.04c-.02-.25-.03-.44-.02-.67.09,0,.19.02.28,0,.02-.24.1-.23.24-.22Z"/><path class="cls-14" d="M81.57,88.3c0,.16.02.31.02.45-.04,0-.23,0-.24.06v.13s.24,0,.24,0c0,.06,0,.12,0,.19l-.24.04c-.01-.18-.04-.09-.05-.11,0-.02.02-.1-.01-.11h-.22c0-.19-.02-.39-.02-.59.18.03.34-.04.52-.04ZM81.31,88.41v.33s.02,0,.02,0v-.33s-.02,0-.02,0Z"/><path class="cls-21" d="M84.32,93.24s0,.05,0,.07c-.15.04-.33.15-.49.04,0-.13-.05-.24-.07-.37h.21l.09.22c0-.1-.03-.2-.05-.3.07,0,.17.11.21-.04.02.13.06.26.09.37Z"/><path class="cls-8" d="M82.98,89.22c.05,1.36.07,2.69.31,4.01l-.02.15s-.05,0-.07,0c-.03-.11.05-.1.05-.16-.29-1.26-.25-2.67-.31-4h.05Z"/><path class="cls-8" d="M81.8,92.12c.03.45.11.82.14,1.26-.02,0-.05,0-.07,0,.06-.19-.03-.31-.05-.45-.17-1.18-.19-2.47-.24-3.68h.02c.06.95.1,1.91.19,2.86Z"/><path class="cls-21" d="M84.51,92.98s.04.1.05.15c.02.07,0,.21.08.22,0-.11-.08-.19-.06-.3.09,0,.19-.04.26.07l.02.26c-.21,0-.29,0-.49-.07-.04-.1-.05-.22-.07-.33.08,0,.14.06.21,0Z"/><path class="cls-21" d="M86.87,92.72s.02,0,.02,0l.12.67c-.07,0-.15,0-.21,0-.07-.22-.09-.47-.12-.71.06.04.12.04.19.04Z"/><path class="cls-21" d="M81.55,92.72c.02.16.07.31.07.48-.07-.01-.14,0-.21,0-.07-.23-.06-.26-.09-.48.08.05.15.05.24,0Z"/><path class="cls-21" d="M83.45,93.01h.02c-.02.12.02.13.05.19,0,.06,0,.12,0,.19-.06,0-.13,0-.19,0-.03-.13-.08-.23-.09-.37h.21Z"/><path class="cls-21" d="M83.71,92.94c.02.14.05.28.09.41-.06.07-.14.04-.21.04,0-.11-.05-.13-.07-.19,0-.09-.03-.17-.02-.26l.19-.04s.02.03.02.04Z"/><path class="cls-21" d="M83.17,92.9c.01.1.06.24.07.32,0,.06-.08.05-.05.16-.05,0-.09,0-.14,0-.03-.16-.07-.32-.09-.48h.21Z"/><path class="cls-21" d="M86.66,92.94c.05.21.09.26.07.45-.06,0-.13,0-.19,0-.03-.13-.08-.26-.09-.41l.21-.04Z"/><path class="cls-21" d="M87.2,92.94c.02.16.04.19.07.3,0,.04,0,.08-.02.11h-.16c-.07-.12-.09-.26-.12-.41h.24Z"/><path class="cls-21" d="M82.91,92.98c.01.07.07.19.07.22,0,.05,0,.13,0,.19-.06,0-.13,0-.19,0-.02-.14-.08-.26-.09-.41h.21Z"/><path class="cls-21" d="M82.42,93.05l.05.33c-.07,0-.14,0-.21,0-.02-.13-.07-.24-.09-.37.07-.01.18.05.21-.07l.05.11Z"/><path class="cls-21" d="M85.93,93.24s0,.1,0,.15c-.06,0-.13,0-.19,0-.02-.13-.09-.23-.09-.37l.21-.04c.01.07.06.2.07.26Z"/><path class="cls-21" d="M82.65,93.01c.04.11.06.24.07.37-.07,0-.14,0-.21,0,0-.14-.07-.24-.07-.37h.21Z"/><path class="cls-21" d="M81.87,93.39s-.09,0-.14,0c-.03-.14-.08-.26-.09-.41.06-.01.15.04.19-.04.02.13.11.26.05.45Z"/><path class="cls-21" d="M85.34,93.01c.01.07,0,.21.07.19,0,.03,0,.08,0,.11,0,0-.01.01-.02.02l.02.02v.04c-.07,0-.14,0-.21,0-.02-.07-.03-.18-.07-.22,0-.05,0-.11,0-.15h.21Z"/><path class="cls-21" d="M86.4,93.01c.05.16.06.21.07.37-.07-.03-.16.04-.21.04,0-.13-.05-.24-.07-.37l.21-.04Z"/><path class="cls-14" d="M85.08,93.09s.05.08.07.11l-.02.02.02.16c-.08,0-.16,0-.24,0,0-.11-.05-.2-.05-.3.06.02.16-.02.21,0Z"/><path class="cls-14" d="M85.6,93.09c.07.05.06.19.07.3-.07.02-.15,0-.21,0v-.07s-.03,0-.05,0c0-.08,0-.16-.02-.22h.21Z"/><path class="cls-14" d="M86.14,93.09c.05.09.05.18.07.3-.07,0-.14,0-.21,0-.02-.1-.05-.19-.07-.3h.21Z"/><path class="cls-6" d="M81.29,88.04c0,.1,0,.2,0,.3-.08,0-.16,0-.24,0,0-.09,0-.17,0-.26l.24-.04Z"/><path class="cls-14" d="M82.13,93.13c.01.07.07.17.07.26-.07,0-.14,0-.21,0,0-.05-.01-.1-.05-.11,0-.07-.01-.1-.02-.15h.21Z"/><path class="cls-14" d="M81.62,93.2s.03.03.05.04v.15c-.1,0-.27.05-.26-.19.07,0,.14-.01.21,0Z"/><path class="cls-22" d="M86.96,92.94c.03.15.04.29.12.41v.08s-.07-.04-.07-.04l-.12-.67s.01-.03.02-.04c0,.07.03.18.05.26Z"/><path class="cls-22" d="M87.53,93.39l-.05-.33.09.19.02.19s-.06-.04-.07-.04Z"/><path class="cls-22" d="M83.76,92.94c0,.15.07.26.07.41h-.02c-.05-.13-.07-.27-.09-.41h.05Z"/><path class="cls-18" d="M82.16,93.01c.02.13.08.24.09.37-.02,0-.03,0-.05,0-.02-.16-.09-.24-.07-.41h.02s0,.03,0,.04Z"/><path class="cls-22" d="M86.54,93.39h-.07c0-.07-.01-.16-.02-.22l.02-.04c.02.1.05.16.07.26Z"/><path class="cls-18" d="M82.51,93.39s-.03,0-.05,0l-.05-.33h.02c.02.12.07.21.07.33Z"/><path class="cls-22" d="M85.74,93.39h-.07c-.01-.06-.01-.17-.02-.22h.02c.02.08.06.14.07.22Z"/><path class="cls-18" d="M82.79,93.39s-.05,0-.07,0c0-.07-.01-.16-.02-.22l.02-.04c.02.1.06.16.07.26Z"/><path class="cls-22" d="M84.91,93.39s-.03,0-.05,0l-.02-.26h.02c.02.09.05.17.05.26Z"/><path class="cls-18" d="M83.05,93.39s-.05,0-.07,0c0-.06,0-.14,0-.19l.02-.04c.02.07.03.15.05.22Z"/><path class="cls-22" d="M86.26,93.42s-.04-.04-.05-.04c-.02-.05-.01-.14-.02-.19l.02-.04c.02.09.05.17.05.26Z"/><path class="cls-18" d="M83.52,93.2c-.03-.05-.07-.06-.05-.19h.02c0,.06.02.12.02.19Z"/><path class="cls-18" d="M83.59,93.39s-.05,0-.07,0c0-.06,0-.12,0-.19.03.05.08.08.07.19Z"/><path class="cls-22" d="M86,93.39s-.05,0-.07,0c0-.05,0-.11,0-.15l.02-.04c.01.06.04.12.05.19Z"/><path class="cls-22" d="M86.8,93.39s-.05,0-.07,0c0-.05,0-.14,0-.19h.02c.01.07.04.12.05.19Z"/><path class="cls-22" d="M87.34,93.39s-.02.05-.05.04c0-.05,0-.08-.02-.11,0-.02,0-.06,0-.07h.02s.05.09.05.15Z"/><path class="cls-18" d="M81.73,93.39s-.05,0-.07,0v-.15h.02s.05.09.05.15Z"/><path class="cls-18" d="M83.34,93.39s-.05,0-.07,0l.02-.15s.05.09.05.15Z"/><path class="cls-14" d="M81.1,90.12h.05c.02.07-.02.14-.02.15-.03-.04-.02-.09-.02-.15Z"/><path class="cls-18" d="M81.99,93.39s-.03,0-.05,0c0-.04,0-.07,0-.11.03.02.05.06.05.11Z"/><path class="cls-22" d="M85.2,93.39s-.03,0-.05,0l-.02-.16.02-.02s.03.14.05.19Z"/><path class="cls-21" d="M81.24,92.27h.05s-.02.07-.02.07c0,0-.02-.01-.02-.07Z"/><path class="cls-22" d="M85.41,93.31s.03,0,.05,0v.07s-.03,0-.05,0c0-.02,0-.05,0-.07Z"/><path class="cls-22" d="M84.37,93.31s-.04,0-.05,0c0-.02,0-.06,0-.07h.02s.02.05.02.07Z"/><path class="cls-8" d="M87.29,93.35h-.05s.02-.03.02-.04c0,.01.02.03.02.04Z"/><path class="cls-32" d="M86.59,78.71l.1-.07c.11.08.08.25.11.4.1.02,0-.21.09-.28.07-.06.11.04.16.06-.03.44-.05.89-.07,1.34-.11-.05-.14.12-.24.11-.01-.15.13-.96,0-.93,0,.35-.03.69-.05,1.04l-.21.04c.02-.52.05-1.04.07-1.56.03-.04.02-.1.02-.15Z"/><path class="cls-31" d="M86.52,77.07c-.33,1.74-.28,3.62-.35,5.42h-.05c.07-1.8,0-3.7.35-5.42h.05Z"/><path class="cls-32" d="M86.3,78.86l.16-.07v.15s.05,0,.05,0c-.03.36-.03.72-.05,1.08-.09-.08-.14-.08-.24-.04.02-.37.04-.75.07-1.11Z"/><path class="cls-31" d="M86.56,78.86c-.04,1-.1,2.01-.12,3.01h-.02c-.01-.98.05-1.96.09-2.94.01-.13.02-.05.05-.07Z"/><path class="cls-31" d="M86.59,78.75c-.16.17.11-1.93.19-1.65-.11.54-.16,1.09-.19,1.65Z"/><path class="cls-31" d="M87.03,77.07l-.19,1.56c-.06-.14.08-1.65.19-1.56Z"/><path class="cls-32" d="M83.41,78.26l.14-.07c-.01.08.04.17.05.22,0,.09,0,.2,0,.3.01-.02.04-.06.05-.07,0-.08.01-.17.02-.26.08,0,.21.09.19.22-.04.49-.07,1.34-.09,1.82l-.21-.04c0-.24,0-.92.02-1.08,0-.02.08-.05.05-.15l-.09.08c.05.21-.02.51-.02.74l-.49-.04c0,.1,0,.2,0,.3-.08.09-.16-.06-.26.04.03-.62.06-1.17.12-1.78.07-.03.12.04.19.07,0,.12-.12.93,0,.85.01-.33.04-.67.07-1,.08,0,.14-.13.21-.04,0,.11-.11.78,0,.71.02-.27.04-.55.07-.82ZM83.63,78.92c.02-.06,0-.12,0-.18-.05.09-.11.19-.09.33.09.04,0-.15.09-.16Z"/><path class="cls-32" d="M84.42,78.34c-.06.54-.05,1.1-.12,1.63l-.21.11c.02-.58.06-1.14.12-1.71.08-.06.12-.1.21-.04Z"/><path class="cls-32" d="M83.9,78.93l.14-.07c.14.37-.04.95,0,1.37-.08,0-.16,0-.24,0,.02-.43.08-.88.09-1.3Z"/><path class="cls-31" d="M84.09,79.01l.21-1.86c.06-.01.05.01.05.09-.18.96-.19,2.04-.28,3.03,0,0-.02-.04-.02-.04-.03-.35.09-.9.05-1.23Z"/><path class="cls-31" d="M84.63,77.15c-.18.72-.22,1.86-.26,2.64l-.05.04c.05-.91.08-1.8.26-2.68h.05Z"/><path class="cls-31" d="M83.85,78.6s.04-.02.05.02c0,.78-.13,1.6-.12,2.39-.02,0-.03,0-.05,0,.04-.73.05-1.67.12-2.42Z"/><path class="cls-31" d="M83.85,77.07c-.14.49-.15,1.04-.21,1.56,0,.01-.04.05-.05.07,0-.09,0-.21,0-.3.08-.44.07-.93.21-1.34h.05Z"/><path class="cls-31" d="M84.11,77.07c-.11.34-.14,1.12-.2,1.41-.13-.08.11-1.22.18-1.41h.02Z"/><path class="cls-31" d="M84.4,77.07c-.02.07-.03.06-.05,0h.05Z"/><path class="cls-32" d="M84.91,78.86c-.08.5.02.95.05.11.05.03.07-.11.08-.11.09-.03.06.13.13.11-.05.55-.05,1.15-.07,1.71-.08,0-.15-.06-.24,0,0-.05.01-.12-.02-.15,0-.01,0-.02,0-.04.12-.27.03-.69.07-1-.03,0-.04.05-.05.09-.02.21-.01.54-.02.76-.07-.05-.13-.1-.21-.07.02-.49.04-.96.07-1.45l.21.04Z"/><path class="cls-32" d="M85.43,79.16c-.03.46-.05.92-.07,1.37-.08-.03-.14-.03-.21,0,.02-.43.03-.87.05-1.3l.24-.07Z"/><path class="cls-31" d="M85.74,77.04c-.3,1.2-.25,2.53-.35,3.79h-.02c.02-.59.08-3.65.38-3.79Z"/><path class="cls-31" d="M85.2,77.07c-.21.7-.2,1.53-.26,2.29,0,.05-.02.11-.05.06-.02-.82.16-1.57.24-2.34h.07Z"/><path class="cls-31" d="M85.17,78.97s0-.08,0-.11h.05c-.03.72-.07,1.43-.09,2.15h-.05c.06-.67.03-1.38.09-2.04Z"/><path class="cls-31" d="M85.43,77.04c.05.09-.03.21-.05.32-.05.31-.08.63-.12.95-.04,0-.05.02-.04-.05.03-.3.08-1.02.21-1.21Z"/><path class="cls-32" d="M81.47,78.3c-.06.45-.08,1.08-.09,1.56.06.13.05-.28.05-.32.02-.29.05-.58.07-.87.11.07.04-.21.13-.19.07.02,0,.25.08.22-.02.28-.05.57-.05.85l.04-.04c.02-.35.05-.7.08-1.04.06.02.05-.07.07-.15l.14.03c-.06.63-.1,1.38-.12,2.01-.07-.05-.14-.02-.21,0,0-.04,0-.07,0-.11h-.05c0,.07,0,.15,0,.22l-.21-.04c.02.07-.02.15-.02.19h-.05c0-.33.04-.65-.24-.45.03-.64.08-1.3.14-1.93l.24.04Z"/><path class="cls-12" d="M81.1,80.2c.28-.21.23.12.24.45,0,.4-.02.82-.02,1.23l-.26-.04c.02-.54.02-1.1.05-1.63Z"/><path class="cls-25" d="M81.31,81.87c0,.45-.04.92-.02,1.37l-.26.04c0-.48,0-.97.02-1.45l.26.04Z"/><path class="cls-32" d="M82.04,78.56c.13-.1.13.03.21.07-.04.46-.06.91-.07,1.37l.05-.05c0-.31.03-.61.05-.91l.21-.04c-.05.45-.05,1.05-.07,1.52l-.24-.04c0-.15.04-.29.02-.45-.03-.02-.04.04-.05.04-.07.01-.14-.01-.21.04.03-.52.05-1.04.09-1.56Z"/><path class="cls-32" d="M82.77,78.71c.01.36-.06.73-.07,1.08-.09-.05-.13,0-.21.04.02-.34.08-.71.05-1.04.01-.04.04,0,.05-.15,0-.05,0-.1,0-.15l.17-.02c0,.07.02.19.02.24Z"/><path class="cls-31" d="M83.05,77.07c-.24,1.06-.23,2.13-.31,3.23h-.05c.03-1.07.06-2.23.31-3.23h.05Z"/><path class="cls-31" d="M82.49,79.82c-.01.58-.06,1.15-.05,1.73,0,.05.02.14-.02.13-.02-.95-.03-1.99.12-2.9.03.33-.03.7-.05,1.04Z"/><path class="cls-31" d="M82.51,77.07c-.21.92-.25,1.92-.28,2.88l-.05.05c.04-1,.05-2.01.31-2.94h.02Z"/><path class="cls-31" d="M82.58,78.63c-.14,0,.11-1.78.19-1.54-.11.5-.18,1.02-.19,1.54Z"/><path class="cls-31" d="M81.97,77.11c-.17.79-.21,1.59-.27,2.42l-.04.04c.03-.84.07-1.71.28-2.49l.02.04Z"/><path class="cls-31" d="M81.47,78.3c.01-.05-.02-.09.05-.07,0,.44-.07.88-.09,1.32,0,.03.01.44-.05.32.01-.48.03-1.11.09-1.56Z"/><path class="cls-31" d="M81.71,77.07c-.08.33-.13.66-.18,1-.12,0,.11-.87.15-1h.02Z"/><path class="cls-32" d="M84.61,79.19c-.03.54-.05,1.17-.07,1.71-.04-.13-.13-.12-.21-.11.03-.52.05-1.04.07-1.56.08-.07.12-.08.21-.04Z"/><path class="cls-31" d="M84.91,77.07c-.34,1.95-.32,4.04-.38,6.06-.11-.33,0-.84-.02-1.23.05-1.6.03-3.3.35-4.83h.05Z"/><path class="cls-32" d="M85.78,78.67c.12-.05.11.14.19.15-.01.26-.01.53-.05.78h.03c.03-.24.06-.52.08-.78l.13-.07.06.11c-.04.49-.05,1.07-.07,1.56-.08-.08-.17.05-.22.04-.03-.16-.17-.04-.25-.04.02-.59.05-1.16.09-1.75Z"/><path class="cls-31" d="M86.26,77.07c-.21.72-.16,1.63-.28,2.38h-.02c.01-.82.1-1.6.26-2.38h.05Z"/><path class="cls-31" d="M86,77.07c-.31,1.26-.23,2.72-.35,4.05h-.02c.04-1.35.09-2.75.31-4.05h.07Z"/><path class="cls-31" d="M87.6,77.07c-.19.7-.19,1.53-.26,2.28,0,.06.02.06-.05.06.02-.78.09-1.6.24-2.34h.07Z"/><path class="cls-32" d="M85.71,78.71c0,.58-.06,1.16-.07,1.75h-.24c.03-.57.05-1.14.09-1.71.06.03.05-.09.08-.11l.13.07Z"/><path class="cls-31" d="M82.25,77.07c-.29,1.17-.26,2.61-.34,3.83,0,.02-.03.05-.04.04,0-1.28.06-2.65.33-3.86h.05Z"/><path class="cls-31" d="M83.12,78.41c-.03.33-.06.67-.07,1-.16.09.12-2.05.19-2.23h.02c-.06.41-.1.81-.14,1.23Z"/><path class="cls-31" d="M83.57,77.11c-.14.63-.18,1.31-.24,1.97-.16.09.13-1.85.21-2.01l.02.04Z"/><path class="cls-29" d="M81.38,80.64c-.02,1.13-.06,2.28-.07,3.42h-.02c-.02-1.13.04-2.3.05-3.42h.05Z"/><path class="cls-26" d="M81.31,84.06c-.03.39-.02.77,0,1.15h-.05c.01-.38-.03-.78.02-1.15h.02Z"/><path class="cls-13" d="M81.26,85.66c0,.15,0,.3,0,.45h-.24c0-.15,0-.3,0-.45h.24Z"/><path class="cls-15" d="M81.31,85.21c0,.64,0,1.28,0,1.92,0,.07.02.15-.05.13,0-.68,0-1.36,0-2.04h.05Z"/><path class="cls-22" d="M81.26,87.14c0,.09,0,.17,0,.26-.08.01-.16,0-.24,0,0-.09,0-.17,0-.26h.24Z"/><path class="cls-20" d="M81.26,84.99c0,.22,0,.45,0,.67h-.24c0-.21,0-.42,0-.63l.24-.04Z"/><path class="cls-6" d="M87.29,89.82c.02,1.05.12,2.05.18,3.08-.2-.96-.19-2.07-.22-3.08h.05Z"/><path class="cls-8" d="M87.27,89.08c0,.25.02.49.02.74h-.05c-.01-.34-.04-.67,0-1,0,0,.02,0,.02,0,0,.09,0,.17,0,.26Z"/><path class="cls-24" d="M86.94,84.36l.21-.04c-.01.27.04.51.02.78h-.24c0-.25,0-.5,0-.74Z"/><polygon class="cls-26" points="87.24 83.39 87.22 84.25 87.16 84.24 87.17 83.39 87.24 83.39"/><path class="cls-12" d="M86.94,83.95h-.02c0-.33.04-.36.02-.63h.02c0,.21-.02.44-.02.63Z"/><path class="cls-31" d="M86.94,84.36c0,.22,0,.45,0,.67h-.02c0-.36,0-.72,0-1.08h.02c0,.14,0,.27,0,.41Z"/><path class="cls-26" d="M87.2,85.03c0,.21,0,.42,0,.63h-.02c0-.31,0-.62,0-.93h.02c0,.1,0,.2,0,.3Z"/><path class="cls-9" d="M87.22,89.15c.03,1.04.05,2.12.14,3.16-.06.1-.11.06-.19.04-.11-1.06-.14-2.13-.19-3.2h.24Z"/><path class="cls-8" d="M86.99,88.85c.03,1.47.09,2.96.31,4.38h-.02c-.29-1.36-.3-2.96-.33-4.38.02,0,.03,0,.05,0Z"/><path class="cls-26" d="M86.96,82.39c0,.31,0,.62,0,.93h-.02c0-.3-.06-.63,0-.93h.02Z"/><path class="cls-5" d="M86.92,87.33c0,.22-.02.48.05.67.05.16.02.67.02.85-.01,0-.03,0-.05,0-.04-.4.2-.99-.24-.82,0-.23,0-.47,0-.71h.21Z"/><path class="cls-8" d="M87.17,87.89c.11-.02.02.31.02.41h-.21c.03-.14-.04-.26-.02-.37l.21-.04Z"/><path class="cls-19" d="M87.25,88.82c0,.12-.02.22-.02.33h-.24v-.3c.1-.02.17-.02.26-.04Z"/><path class="cls-28" d="M87.25,88.3c0,.06,0,.41-.01.41-.09-.22,0-.5-.01-.74h.02c0,.11,0,.22,0,.33Z"/><path class="cls-15" d="M86.99,80.16c-.02.42-.04.84-.02,1.26-.11-.03-.13-.04-.24.04,0-.4,0-.78.02-1.19.09,0,.13-.16.24-.11Z"/><path class="cls-5" d="M87.2,87.52c0,.07,0,.16,0,.22,0,.02-.04.09-.02.15l-.21.04c0-.14,0-.27,0-.41h.24Z"/><path class="cls-25" d="M87.22,86.18c-.02.51.04,1.06-.02,1.56-.02-.68-.03-1.39-.02-2.08h.02c0,.18.02.35.02.52Z"/><path class="cls-2" d="M86.94,81.42c0,.11.01,1.05-.02,1.11h-.21c0-.37.03-.71.02-1.08.1-.06.11-.08.21-.04Z"/><path class="cls-8" d="M81.31,89.04s.03-.07.05.11c.11,1.35.05,2.76.33,4.09-.03.01-.05-.03-.07-.04-.21-1.36-.22-2.77-.31-4.16Z"/><path class="cls-18" d="M81.55,86.66c0,.17,0,.35,0,.52-.14,0-.22-.03-.24.22-.01.01-.03,0-.04,0,0-.05,0-.1,0-.15.07.02.05-.06.05-.13,0-.15,0-.31,0-.47h.24Z"/><path class="cls-6" d="M81.55,87.96c0,.12,0,.23.02.33-.08-.03-.16.03-.24.04v-.33l.21-.04Z"/><path class="cls-30" d="M81.59,87.07c0,.36,0,.72,0,1.08h-.05c0-.36,0-.72,0-1.08h.05Z"/><path class="cls-13" d="M81.33,88v.33s-.03,0-.05,0c0-.3.01-.59.02-.89.04,0,.02.08.02.13,0,.14,0,.29,0,.43Z"/><path class="cls-9" d="M81.59,89.11c.03,1.06.06,2.23.16,3.27l-.21-.04c-.12-1.08-.11-2.13-.19-3.2l.24-.04Z"/><path class="cls-21" d="M81.59,88.74c0,.06,0,.12,0,.19h-.24s0-.13,0-.13c0-.05.2-.07.24-.06Z"/><path class="cls-28" d="M81.59,88.15c.06.23,0,.49.02.74,0,.08,0,.25,0,.33h-.02c0-.36,0-.72-.05-1.08h.05Z"/><rect class="cls-13" x="81.31" y="88.41" width=".02" height=".33"/><path class="cls-8" d="M84.04,88.89c.04,1.44.04,2.96.31,4.35h-.02c-.31-1.37-.23-2.92-.35-4.35h.07Z"/><path class="cls-8" d="M83.78,89.3c.01,1.28.11,2.66.28,3.9l-.09-.22c-.13-1.2-.21-2.48-.24-3.72l.05.04Z"/><path class="cls-19" d="M84.16,92.12c.02.24.04.51.07.74-.04.14-.14.04-.21.04-.03-.22-.05-.44-.07-.67.1.04.13-.08.21-.11Z"/><path class="cls-19" d="M83.9,92.31c.02.22.07.44.07.67h-.21c-.02-.22-.05-.45-.07-.67.07.05.14.05.21,0Z"/><path class="cls-9" d="M83.45,89s0,.1,0,.15c.08-.07.19-.04.28-.07.02,1.06.07,2.19.16,3.23-.07.05-.14.05-.21,0-.07-.46-.12-1.81-.14-2.3-.05.02-.05.18-.05.24.01.67.08,1.36.14,2.03-.07.05-.13.1-.21.07l-.11-.78c0,.23.01.52.04.74-.05.08-.12.08-.19.07-.12-1.12-.16-2.17-.19-3.31h.21c.03.8.05,1.61.11,2.42l.06-.02c-.08-.8-.09-1.62-.12-2.43l.21-.04Z"/><path class="cls-9" d="M82.93,89c.02,1.07.05,2.18.14,3.23h-.21c-.09-1.01-.13-2.06-.16-3.08.05-.14.15-.12.24-.15Z"/><path class="cls-19" d="M83.08,92.23c.02.19.07.47.09.67h-.21c-.04-.22-.07-.44-.09-.67h.21Z"/><path class="cls-19" d="M83.45,93.01h-.21c-.04-.22-.05-.42-.07-.63.07.01.13,0,.19-.07.02.22.09.47.09.71Z"/><path class="cls-18" d="M82.96,88.59c0,.22.03.42.02.63h-.05c0-.31-.04-.61,0-.93,0-.03-.02-.09-.02-.15h.02c0,.12.02.3.02.45Z"/><path class="cls-9" d="M81.71,89.08s.09.07.14.04c.04.97.06,1.97.14,2.94-.05.08-.12.08-.19.07-.09-1.01-.15-2.03-.19-3.05.03,0,.07,0,.09,0Z"/><path class="cls-19" d="M82.13,92.98s0,.11,0,.15h-.21c-.06-.37-.08-.63-.12-1,.07.01.13,0,.19-.07.03.31.09.63.14.93Z"/><path class="cls-19" d="M81.76,92.38c.02.16.05.39.07.56-.04.07-.13.03-.19.04-.04-.22-.07-.4-.09-.63l.21.04Z"/><path class="cls-14" d="M81.62,89.26h-.02s0-.02,0-.04h.02v.04Z"/><path class="cls-8" d="M84.51,92.49c.02.22.06.41.07.63h-.02c-.24-1.25-.26-2.68-.26-3.98h.02c.03,1.15.06,2.22.19,3.34Z"/><path class="cls-19" d="M84.44,92.35c.02.21.04.43.07.63-.07.06-.14,0-.21,0-.03-.19-.08-.45-.09-.63.11.02.13.11.24,0Z"/><path class="cls-19" d="M84.7,92.46c.08.13.06.42.07.59-.06-.02-.13.01-.19,0-.03-.2-.05-.36-.07-.56l.19-.04Z"/><path class="cls-8" d="M84.68,91.34c.03.6.08,1.21.19,1.78-.04.02-.07-.06-.09-.07-.01-.18.01-.46-.07-.59-.03-.33-.05-.77-.07-1.11h.05Z"/><path class="cls-22" d="M84.58,93.13c.01.06.07.15.06.22-.08-.01-.07-.16-.08-.22h.02Z"/><path class="cls-9" d="M86.42,89.04s0,.1.01.15v-.04c.08-.06.17-.03.25-.04.02,1.21.11,2.41.19,3.6-.07,0-.13,0-.19-.04-.11-.76-.13-1.53-.18-2.3-.05,0-.01.72,0,.79.07.41.05.79.09,1.21-.08.03-.14.03-.21,0-.13-1.1-.14-2.23-.19-3.34h.24ZM86.47,89.22c-.13-.08.02.83-.02.99l.05.05-.02-1.04Z"/><path class="cls-8" d="M86.73,89.04c0,1.22.11,2.45.19,3.64-.02.03-.02.05-.05.04-.08-1.22-.17-2.45-.19-3.68h.05Z"/><path class="cls-8" d="M86.68,92.68c.02.17.04.35.07.52h-.02c-.16-.5-.16-1.16-.19-1.71h.02c.03.43.06.77.12,1.19Z"/><path class="cls-8" d="M83.69,92.31c.02.21.04.42.07.63h-.05c-.12-.84-.17-1.81-.21-2.69,0-.06,0-.23.05-.24.02.5.07,1.83.14,2.3Z"/><path class="cls-19" d="M83.64,92.27c.02.21.02.43.05.63l-.19.04c-.02-.2-.07-.39-.07-.59.08.02.14-.03.21-.07Z"/><path class="cls-8" d="M83.43,92.35c0,.23.07.44.07.67h-.05c-.04-.48-.15-.96-.13-1.45l.11.78Z"/><path class="cls-8" d="M82.86,92.23c.03.31.08.63.14.93l-.02.04c-.28-1.27-.24-2.72-.31-4.05h.02c.03,1.02.07,2.07.16,3.08Z"/><path class="cls-19" d="M86.59,92.38c.02.17.04.39.07.56l-.21.04c-.03-.2-.05-.39-.07-.59.08.03.14.03.21,0Z"/><path class="cls-8" d="M86.3,91.64c.04.5.09,1,.16,1.49l-.02.04c-.14-.45-.14-1.03-.19-1.52h.05Z"/><path class="cls-19" d="M87.1,92.2c.02.25.06.49.09.74h-.24c-.06-.23-.06-.45-.07-.71.08,0,.15.11.18-.04h.03Z"/><path class="cls-8" d="M82.44,89.15c.04,1.35.09,2.65.28,3.98l-.02.04c-.29-1.25-.23-2.7-.31-4.01h.05Z"/><path class="cls-19" d="M82.84,92.31c.02.22.03.45.07.67h-.21c-.04-.23-.05-.41-.07-.63l.21-.04Z"/><path class="cls-19" d="M82.37,92.94c-.03.12-.14.06-.21.07-.01-.18-.05-.41-.07-.59l.21-.04c.02.18.06.37.07.56Z"/><path class="cls-8" d="M82.35,92.38c.02.22.07.45.09.67h-.02l-.05-.11c-.09-.71-.18-1.52-.19-2.25,0-.05,0-.24.04-.24.04.64.06,1.3.13,1.93Z"/><path class="cls-8" d="M85.57,87.96s0,.08,0,.11c0,.11.04.05.05.15s-.02.18-.02.26l-.21.04c-.02,1.52.07,3.16.28,4.64h-.02s-.04-.07-.05-.07c-.19-1.49-.26-3.12-.26-4.64.04-.14.02-.33.02-.48h.21Z"/><path class="cls-19" d="M85.78,92.35c.02.21.04.42.07.63l-.21.04c-.04-.2-.05-.39-.07-.59l.21-.07Z"/><path class="cls-8" d="M85.74,91.01c.05.74.08,1.47.21,2.19l-.02.04c-.19-.69-.18-1.49-.24-2.23h.05Z"/><path class="cls-19" d="M82.65,93.01h-.21c-.03-.2-.07-.42-.09-.63.08,0,.14.08.21-.04.02.21.06.46.09.67Z"/><path class="cls-19" d="M85.24,92.38c0,.07.04.14.02.22h.05s0-.08,0-.11l.21.04c.02.18.08.37.07.56h-.21c-.02-.15-.06-.29-.05-.45-.1-.03-.01.29,0,.37h-.21c-.03-.22-.07-.41-.09-.63.08.02.14.05.21,0Z"/><path class="cls-8" d="M84.96,91.6c.02.53.13,1.04.16,1.56,0-.01-.04-.07-.05-.07-.09-.48-.14-.98-.16-1.49h.05Z"/><path class="cls-8" d="M85.34,93.01c-.02-.08-.1-.4,0-.37,0,.2.04.37.07.56-.08.02-.06-.11-.07-.19Z"/><path class="cls-8" d="M85.41,93.35l-.02-.02s.01-.02.02-.02c0,.01,0,.02,0,.04Z"/><path class="cls-8" d="M85.93,89.04c.03,1.38.07,2.78.28,4.12l-.02.04c-.28-1.3-.24-2.79-.31-4.16h.05Z"/><path class="cls-19" d="M86.33,92.49c.02.16.05.36.07.52l-.21.04c-.03-.2-.05-.39-.07-.59l.21.04Z"/><path class="cls-19" d="M84.98,92.49c.02.19.07.4.09.59-.05-.02-.15.02-.21,0-.04-.19-.07-.36-.09-.56l.21-.04Z"/><path class="cls-19" d="M86.07,92.53c.02.18.04.38.07.56h-.21c-.03-.19-.05-.37-.07-.56.07.05.14.02.21,0Z"/><path class="cls-8" d="M81.92,89.74c.04,1.07.08,2.18.24,3.23h-.02c-.21-1.03-.21-2.16-.26-3.23h.05Z"/><path class="cls-12" d="M86.7,80.38c-.01.53-.05,1.07.02,1.6h-.07s0-.1,0-.15l-.21-.04c.01-.46.03-.91.05-1.37l.21-.04Z"/><path class="cls-31" d="M86.7,80.38c.01-.35.06-.69.05-1.04.14-.06-.05,1.19-.02,1.37h-.02c0-.11,0-.22,0-.33Z"/><path class="cls-12" d="M85.69,80.42c.08,0,.22-.12.25.04.05.01.14-.12.22-.04-.01.37-.01.74-.02,1.11-.07-.05-.14-.05-.21,0l.03-1.04h-.06s-.04,1.41-.04,1.41h-.21c0-.5,0-.98.05-1.48Z"/><path class="cls-2" d="M86.14,81.53c0,.38-.02.77-.02,1.15l-.22.04.03-1.19c.07-.05.14-.05.21,0Z"/><path class="cls-25" d="M86.4,82.31c0,.3-.03.62-.02.93h-.24c0-.14.03-.8.02-.93h.24Z"/><path class="cls-15" d="M86.47,80.01c-.01.28-.04.57-.05.85-.07-.05-.14-.02-.21,0,.01-.29,0-.6.02-.89.1-.04.15-.04.24.04Z"/><path class="cls-12" d="M86.42,80.86c0,.26,0,.52,0,.78l-.24.04c0-.27.01-.55.02-.82.08-.02.14-.05.21,0Z"/><path class="cls-2" d="M86.42,81.64c0,.21-.04.44-.02.67h-.24c0-.21.02-.43.02-.63l.24-.04Z"/><path class="cls-26" d="M86.16,82.5c-.03.71-.02,1.49-.02,2.19h-.05c0-.73.01-1.46.02-2.19h.05Z"/><path class="cls-25" d="M86.44,81.79l.21.04c0,.38,0,.77,0,1.15l-.24.04s0-.02,0-.04v-.97c.04-.06.02-.15.02-.22Z"/><path class="cls-3" d="M86.44,81.87c0,.06,0,.11-.02.15h-.02c0-.08.02-.14.02-.15h.02Z"/><path class="cls-15" d="M83.5,79.97c-.02.47-.03.94-.05,1.41l-.21.04c0-.16,0-.32,0-.48-.07-.03-.04.11-.05.19h-.21c.02-.38.02-.8.02-1.19l.49.04ZM83.26,80.9v-.89l-.05.58.05.32Z"/><path class="cls-12" d="M83.76,80.42c0,.38-.04,1.1-.05,1.49-.08-.04-.09-.16-.21-.11,0-.47.03-.94.05-1.41l.21.04Z"/><path class="cls-15" d="M82.96,80.27l-.02.85h-.24c0-.28.04-.57.05-.85.08-.08.15,0,.21,0Z"/><path class="cls-31" d="M83.55,80.38c-.02.45-.04.89-.05,1.34h-.05c0-.81.04-1.61.09-2.42h.02c-.03.16-.01.84-.02,1.08Z"/><path class="cls-31" d="M83.01,80.23c0,.4,0,.81-.06,1.19-.02-.2,0-.94.01-1.15,0,0,.03-.04.05-.04Z"/><path class="cls-3" d="M83.63,78.92c-.08.01,0,.19-.09.16-.02-.14.04-.24.09-.33,0,.06,0,.12,0,.18Z"/><path class="cls-3" d="M83.55,79.3c-.07-.08.04-.11.07-.15.03.09-.04.13-.05.15h-.02Z"/><path class="cls-3" d="M83.62,78.67s.02-.03.02-.04l-.02.04Z"/><path class="cls-15" d="M84.3,79.97c-.02.37,0,.75-.02,1.11-.07,0-.14-.01-.21-.04,0-.33-.02-.64.02-.97l.21-.11Z"/><path class="cls-29" d="M84.32,80.79c0,.08.02.31-.04.33,0,0-.01-.03-.01-.03.03-.42-.02-.86.05-1.26l.05-.04c-.02.33-.03.67-.05,1Z"/><path class="cls-15" d="M84.02,80.23c0,.22-.01.45,0,.67-.03.02-.02.07-.02.11-.07-.06-.14,0-.21,0,0-.26.01-.52.02-.78.07,0,.14,0,.21,0Z"/><path class="cls-26" d="M84.07,80.27c0,.28,0,.57,0,.85-.08-.28-.04-.59-.05-.89.02,0,.03.01.05.04Z"/><path class="cls-29" d="M83.78,81.01c-.03.54-.01,1.28-.05,1.82h-.05c.03-.51.03-1.29.05-1.82.02,0,.03,0,.05,0Z"/><path class="cls-12" d="M85.1,80.68c-.03.48-.06.96-.05,1.45l-.24-.04c.04-.45.01-.95.05-1.41.08-.06.15,0,.24,0Z"/><path class="cls-15" d="M84.84,80.34c.01.24-.04.54-.05.78l-.21.04c.01-.3.03-.6.05-.89.08-.02.14.03.21.07Z"/><path class="cls-29" d="M84.87,80.68c-.04,1.21-.08,2.42-.07,3.64h-.02c-.05-1.25,0-2.54.07-3.79.04.03.02.1.02.15Z"/><path class="cls-31" d="M84.84,80.49c0-.28,0-.65.02-.91,0-.04.01-.09.05-.09-.04.32.05.74-.07,1Z"/><path class="cls-12" d="M85.36,80.53c0,.44-.02.86-.05,1.3l-.21.04c.02-.33.01-1.03.05-1.34.08-.03.14-.03.21,0Z"/><path class="cls-12" d="M85.64,80.46c0,.41-.05.8-.05,1.23l-.21-.04c0-.38-.01-.8.02-1.19h.24Z"/><path class="cls-26" d="M85.38,80.83c0,.31,0,.62,0,.93-.09-.28-.02-.63-.02-.93h.02Z"/><path class="cls-29" d="M85.13,81.01c-.01.56-.03,1.31-.05,1.86h-.02c0-.59,0-1.28.02-1.86h.05Z"/><path class="cls-15" d="M82.16,80.08c-.01.31-.01.62-.02.93-.09-.05-.19,0-.28,0,0,.11,0,.22,0,.33h-.21c0-.32.02-.65.02-.97.08-.02.14-.05.21,0,0,.18,0,.37,0,.56.09-.02.05-.65.07-.82.07-.05.15-.02.21-.04Z"/><path class="cls-12" d="M81.62,80.49c-.01.46-.04.91-.02,1.37-.08,0-.16-.05-.24,0,.01-.47,0-.97.05-1.41l.21.04Z"/><path class="cls-31" d="M81.62,80.49c0-.07,0-.15,0-.22h.05c0,.54-.02,1.06-.05,1.6h-.02c-.01-.46.01-.92.02-1.37Z"/><path class="cls-12" d="M82.42,80.53c-.01.39-.04.75,0,1.15.04,0,.02-.08.02-.13,0-.29-.02-.6.02-.87l.21.04c-.02.48-.04.97-.05,1.45l-.21-.07-.02-.37c-.04.15-.02.3-.02.45h-.21c-.04-.57.03-1.1.02-1.67l.24.04Z"/><path class="cls-31" d="M82.16,80.08s.02-.05.05-.04c-.02.49-.04.99-.05,1.49h-.05c.03-.48.03-.97.05-1.45Z"/><path class="cls-15" d="M82.7,79.79c0,.31,0,.61-.02.93l-.21-.04c0-.28,0-.57.02-.85.08-.04.13-.08.21-.04Z"/><path class="cls-29" d="M82.75,80.31c-.09,1.17-.06,2.35-.09,3.53h-.02c0-1.17,0-2.36.07-3.53h.05Z"/><path class="cls-12" d="M84.54,80.9c-.01.33-.02.67-.02,1l-.24.04s0-.09-.02-.11c0-.01,0-.02,0-.04.09.05.03-.26.05-.35-.03-.04-.04.06-.05.09h-.49c.02-.17.02-.35.02-.52.08,0,.14-.06.21,0,0,.1,0,.2.02.3l-.05.02v.13s.05,0,.05,0c0-.03,0-.1,0-.11,0,0,.04.02.05-.03,0-.07,0-.2,0-.27.07.05.17,0,.22.07.06-.02.03-.25.04-.33.08,0,.17-.01.21.11Z"/><path class="cls-4" d="M84.77,82.57c0,.32-.02.65-.02.97h-.21s.01-.38-.05-.26c0,.22,0,.45,0,.67-.08-.05-.15-.05-.24,0-.01-.34.03-.67.02-1h.21s.03.19.05.19c0-.18,0-.37,0-.56.08-.04.15-.04.24,0Z"/><path class="cls-2" d="M84.8,81.12c-.02.48-.01.97-.02,1.45-.08-.04-.15-.04-.24,0,.01-.47.03-.94.05-1.41l.21-.04Z"/><path class="cls-25" d="M84.51,81.9c0,.32-.03.75-.02,1.04h-.21c0-.33,0-.67,0-1l.24-.04Z"/><path class="cls-3" d="M85.97,79.45c0,.08.02.17-.05.15-.02-.06.02-.13.02-.15h.02Z"/><path class="cls-32" d="M85.64,81.12c0,.09,0,.17,0,.26h-.05c0-.1.02-.21.02-.26h.02Z"/><path class="cls-4" d="M81.55,82.65c0,.36,0,.72,0,1.08h-.24c0-.36.01-.72.02-1.08h.21Z"/><path class="cls-30" d="M81.55,83.73c0,.27-.02.56-.02.82-.08-.06-.15.01-.24,0,.01-.26.03-.55.02-.82h.24Z"/><path class="cls-25" d="M81.57,81.87c-.01.26-.02.52-.02.78h-.21c0-.26.02-.52.02-.78.07-.04.14,0,.21,0Z"/><path class="cls-24" d="M81.52,84.54c0,.22,0,.45,0,.67h-.21c0-.22-.02-.44-.02-.67.08.01.16-.06.24,0Z"/><path class="cls-13" d="M81.52,85.88c0,.25.02.52.02.78h-.24c0-.27,0-.55,0-.82l.21.04Z"/><path class="cls-20" d="M81.52,85.21c0,.22,0,.45,0,.67l-.21-.04c0-.21,0-.42,0-.63h.21Z"/><path class="cls-20" d="M87.17,85.1c0,.21,0,.42,0,.63h-.24c0-.21,0-.42,0-.63h.24Z"/><path class="cls-26" d="M86.94,85.03c0,.5,0,.99,0,1.49h-.02c.03-.48-.06-1.04,0-1.49h.02Z"/><path class="cls-4" d="M86.92,82.54c-.02.33.04.65.02.97l-.26.04c0-.34.02-.67.02-1h.21Z"/><path class="cls-30" d="M86.94,83.5c-.03.25-.02.63-.02.93l-.24-.04c0-.28,0-.57,0-.85l.26-.04Z"/><path class="cls-24" d="M86.92,84.43c0,.27.02.47-.02.74h-.21c0-.26,0-.52,0-.78l.24.04Z"/><path class="cls-9" d="M86.94,89.11c.01.97.08,2.12.16,3.08h-.03c-.03.14-.1.04-.18.04-.09-1.01-.15-2.05-.16-3.08l.21-.04Z"/><path class="cls-19" d="M86.94,88.67c0,.15,0,.3,0,.45l-.21.04c0-.16,0-.32,0-.48h.21Z"/><path class="cls-6" d="M86.7,88.04c.38-.13.24.23.24.63h-.21c0-.23-.03-.42-.02-.63Z"/><path class="cls-18" d="M86.92,86.77c.01.19.04.33,0,.56h-.21c0-.19-.03-.37-.02-.56h.24Z"/><path class="cls-28" d="M86.7,87.29c0,.31,0,.62,0,.93h-.05c0-.16,0-.36.02-.52-.02,0-.03,0-.05,0,0-.14,0-.27,0-.41h.07Z"/><path class="cls-24" d="M86.96,87.18c0,.27,0,.55,0,.82-.07-.22-.07-.6-.02-.82h.02Z"/><path class="cls-26" d="M86.73,80.83c0,.36,0,.72,0,1.08-.07-.35-.04-.72-.05-1.08h.05Z"/><path class="cls-32" d="M86.73,80.72s0,.07,0,.11h-.05l.02-.11h.02Z"/><path class="cls-22" d="M87.17,87.11c0,.15.02.29.02.41h-.24c0-.14,0-.27,0-.41h.21Z"/><path class="cls-13" d="M87.17,85.73c0,.19,0,.37,0,.56h-.24c0-.19,0-.37,0-.56h.24Z"/><path class="cls-28" d="M87.17,86.29c0,.16,0,.32,0,.48h-.21c-.02-.21-.03-.3-.02-.48h.24Z"/><path class="cls-18" d="M87.17,86.77c0,.11,0,.22,0,.33h-.21c0-.11,0-.22,0-.33h.21Z"/><path class="cls-31" d="M86.7,82.42c0,.3-.02.59-.02.89h-.02c0-.3,0-.59,0-.89h.05Z"/><path class="cls-26" d="M86.73,81.98c0,.14-.02.29-.02.45h-.05c0-.15,0-.3,0-.45h.07Z"/><path class="cls-3" d="M81.57,85.17c0,.61,0,1.21,0,1.82h-.02c0-.61-.04-1.21-.02-1.82h.05Z"/><path class="cls-20" d="M81.59,87.07h-.05s0-.05,0-.07h.02s.02.04.02.07Z"/><path class="cls-5" d="M81.8,87.26c0,.21.02.4.02.59l-.24.04c0-.2,0-.4,0-.59l.21-.04Z"/><path class="cls-18" d="M81.8,86.77c0,.16,0,.32,0,.48l-.21.04c.01-.2-.04-.36-.02-.56l.24.04Z"/><path class="cls-8" d="M81.83,87.85c0,.12,0,.25,0,.37h-.21c-.04-.08-.02-.23-.02-.33l.24-.04Z"/><path class="cls-14" d="M81.83,88.22c0,.21.02.42.02.63l-.24.04c0-.22,0-.45,0-.67h.21Z"/><path class="cls-19" d="M81.85,88.85c0,.06,0,.12,0,.19-.04,0-.11-.03-.14.04-.03,0-.06,0-.09,0v-.19l.24-.04Z"/><path class="cls-9" d="M84.3,89.11c-.02,1.05.03,2.19.14,3.23-.1.11-.13.02-.24,0-.1-1.02-.13-2.19-.16-3.23.09-.01.17-.06.26,0Z"/><path class="cls-9" d="M83.99,89.11c.03,1,.07,2.02.16,3.01-.08.04-.11.15-.21.11-.1-.99-.17-2.12-.16-3.12.07,0,.14,0,.21,0Z"/><path class="cls-19" d="M84.25,88.7c0,.07,0,.15,0,.22h.05s0-.07,0-.11h.21c0,.07.03.23.02.33h-.21s0-.07,0-.11l-.02.07c-.09-.06-.16-.01-.26,0,0-.14,0-.27,0-.41h.21Z"/><path class="cls-19" d="M83.97,88.74c0,.13.01.23.02.37-.08,0-.16,0-.24,0v-.33l.21-.04Z"/><path class="cls-13" d="M84.02,87.85c-.01.35.02.71.02,1.04h-.07c0-.35,0-.69,0-1.04h.05Z"/><path class="cls-14" d="M83.78,89.3l-.05-.04s0-.07,0-.11c.02-.03.02-.05.05-.04,0,.06,0,.12,0,.19Z"/><path class="cls-21" d="M83.17,88.56c.02.21.03.33.02.52h-.21c0-.15-.02-.32-.02-.48l.21-.04Z"/><path class="cls-21" d="M83.45,88.52c0,.16,0,.32,0,.48l-.21.04c-.02-.18-.03-.31-.02-.48l.24-.04Z"/><path class="cls-6" d="M83.26,89.74c.02.58.03,1.16.09,1.73l-.06.02c-.04-.58-.06-1.16-.08-1.75h.05Z"/><path class="cls-18" d="M83.76,87.55v1.56s-.01.03-.02.04c-.04-.52-.02-1.03-.02-1.56,0,0,.02-.03.05-.04Z"/><path class="cls-19" d="M83.71,88.78c0,.09.02.19.02.3-.08.02-.16.02-.24.04,0-.1,0-.2,0-.3l.21-.04Z"/><path class="cls-5" d="M83.24,89.04c0,.24.01.47.02.71h-.05c-.01-.32-.03-.64-.02-.97h.02c0,.07.02.16.02.26Z"/><path class="cls-8" d="M83.5,88.82c0,.1,0,.2,0,.3-.01,0-.04.05-.05.04,0-.17,0-.35,0-.52h.02s.02.11.02.19Z"/><path class="cls-21" d="M82.91,88.56c0,.16.02.3.02.45-.09.03-.19,0-.24.15h-.02s-.02-.04-.02-.07h.05c0-.16,0-.32,0-.48l.21-.04Z"/><path class="cls-6" d="M83.17,88c0,.18,0,.37,0,.56l-.21.04c0-.22-.03-.4-.02-.59h.24Z"/><path class="cls-8" d="M82.89,87.92c.01.13.03.27.05.37l-.26.04c0-.14,0-.27,0-.41h.21Z"/><path class="cls-6" d="M82.93,88.3c0,.1-.03.18-.02.26l-.21.04c0-.05-.02-.16-.02-.26l.26-.04Z"/><path class="cls-30" d="M82.89,87h.05c0,.38,0,.77,0,1.15h-.02c-.05-.37-.01-.77-.02-1.15Z"/><path class="cls-5" d="M81.9,89.04c0,.24.01.47.02.71h-.05c-.01-.32-.03-.64-.02-.97h.02c0,.07.02.16.02.26Z"/><path class="cls-14" d="M81.85,89.04s0,.05,0,.07c-.06.03-.1-.03-.14-.04.03-.07.1-.03.14-.04Z"/><path class="cls-9" d="M84.8,89.08c0,.09-.02.2.04.26.02-.06.01-.15.01-.22h.24c0,.23-.02.48.02.71.04,0,.02-.08.02-.13,0-.19,0-.39,0-.58h.21c.03,1.09.07,2.35.19,3.42l-.21-.04c-.08-.87-.16-1.75-.17-2.64-.14-.11.07,2.3.09,2.53-.07.05-.14.02-.21,0-.09-.8-.11-1.61-.15-2.42-.02,0-.04.23-.04.28.02.73.08,1.52.14,2.25l-.21.04c-.09-.8-.11-1.61-.15-2.42-.07,0-.07.02-.06.04.01.02.05.05.05.05-.06.7.06,1.53.09,2.24l-.19.04c-.13-1.13-.16-2.19-.19-3.34h.21c.03.22.02.64.02.85l.05-.05c-.01-.29-.02-.58-.02-.87h.21Z"/><path class="cls-21" d="M84.32,89.15h-.02v-.04l.02-.07s0,.07,0,.11Z"/><path class="cls-6" d="M84.63,91.34c-.02-.35-.08-.8-.02-1.13,0,0-.14-.08,0-.1.03.41.03.82.06,1.23h-.05Z"/><path class="cls-21" d="M86.4,88.52c0,.19,0,.34.02.52h-.24c0-.17-.02-.33-.02-.48l.24-.04Z"/><path class="cls-6" d="M86.21,89.63c.03.67.05,1.34.09,2.01h-.05c-.05-.66-.07-1.34-.09-2.01h.05Z"/><path class="cls-19" d="M86.68,88.78c0,.11,0,.22,0,.33-.08,0-.16-.03-.24.04,0-.12,0-.25,0-.37h.24Z"/><path class="cls-6" d="M86.56,91.49h-.02c-.04-.22-.11-.94-.04-1.12.03.37.03.74.06,1.12Z"/><path class="cls-6" d="M86.47,89.22l.02,1.04-.05-.05c.04-.15-.1-1.07.02-.99Z"/><path class="cls-22" d="M86.19,89.04c0,.2.02.4.02.59h-.05c-.02-.35-.03-.69-.02-1.04h.02c0,.13.02.3.02.45Z"/><path class="cls-18" d="M86.44,88.52c0,.21,0,.42,0,.63h-.02c0-.08-.08-1.03.02-.63Z"/><polygon class="cls-6" points="86.42 89.15 86.44 89.15 86.43 89.19 86.42 89.15"/><path class="cls-5" d="M86.7,88.22c.01.24.03.56.02.82h-.05c.01-.28-.03-.52-.02-.82h.05Z"/><path class="cls-9" d="M82.65,89.04c.08,1.07.06,2.17.19,3.27l-.21.04c-.12-1.11-.17-2.18-.19-3.31h.21Z"/><path class="cls-9" d="M86.14,89.04c.05,1.15.07,2.31.19,3.46l-.21-.04c-.13-1.13-.16-2.27-.19-3.42h.21Z"/><path class="cls-9" d="M82.11,89.04c.04.37.04.79.05,1.17,0,.05-.02.15.04.13.05-.38-.06-.87-.04-1.26l.24.04c.04,1.05.06,2.2.16,3.23-.07.12-.13.04-.21.04-.07-.63-.08-1.29-.13-1.93-.03,0-.04.19-.04.24.01.51.06,1.19.12,1.69l-.21.04c-.12-1.11-.15-2.26-.19-3.38h.21Z"/><path class="cls-22" d="M82.35,87.11c0,.14,0,.27,0,.41.06.12.05-.23.05-.26.07-.04.14-.04.21-.04-.03.14.04.13.05.22,0,.13-.02.24-.02.37h-.21c0,.45,0,.89.02,1.34h-.05c-.02-.52-.04-1.03-.05-1.56h-.21v-.49h.21Z"/><path class="cls-9" d="M85.62,89.04c.02,1.14.06,2.17.16,3.31l-.21.07c-.11-1.06-.19-2.31-.19-3.38h.24Z"/><path class="cls-21" d="M85.6,88.48c0,.2.02.37.02.56h-.24c0-.17,0-.35,0-.52l.21-.04Z"/><path class="cls-5" d="M85.57,87.52c0,.14,0,.3,0,.45h-.21c0-.16-.02-.3-.02-.45h.24Z"/><path class="cls-14" d="M85.31,88.37c.04.14.02.22.02.37l-.24.04c0-.12,0-.25,0-.37l.21-.04Z"/><path class="cls-19" d="M85.34,88.74c0,.12,0,.24,0,.37h-.24v-.33l.24-.04Z"/><path class="cls-24" d="M85.62,87.37c0,.23,0,.47,0,.71h-.05c-.02-.36.02-.72.02-1.08l.02-.04v.41Z"/><path class="cls-18" d="M85.64,88.33c0,.28,0,.57,0,.85h-.02c0-.33-.04-.62,0-.97h.02s0,.07,0,.11Z"/><path class="cls-7" d="M85.34,87c0,.34,0,.66.02,1h-.05c0-.32,0-.69-.02-1,.02,0,.03,0,.05,0Z"/><path class="cls-28" d="M85.36,88c0,.15.01.31-.02.45-.05-.09,0-.32-.02-.45h.05Z"/><path class="cls-5" d="M85.62,88.07s.02.07.02.15h-.02c0-.1-.04-.04-.05-.15h.05Z"/><path class="cls-9" d="M85.88,89.08c.04,1.15.06,2.32.19,3.46-.08.02-.14.05-.21,0-.08-.91-.17-1.85-.16-2.77-.05-.2-.04-.48-.05-.69h.24Z"/><path class="cls-6" d="M85.74,91.01h-.05c-.08-.59-.03-1.22-.07-1.82h.02c.01.16,0,.42.05.58,0,.36,0,.88.05,1.24Z"/><path class="cls-8" d="M85.24,92.38c-.03-.22-.24-2.63-.09-2.53,0,.92.11,1.84.16,2.75h-.05c.01-.08-.02-.15-.02-.22Z"/><path class="cls-6" d="M84.96,91.6h-.05c-.01-.51-.13-1.16-.04-1.64.03.54.04,1.09.08,1.64Z"/><path class="cls-21" d="M86.14,88.56c0,.16,0,.32,0,.48h-.24v-.45l.24-.04Z"/><path class="cls-19" d="M85.88,88.74c0,.11,0,.22,0,.33h-.24c0-.11,0-.22,0-.33h.24Z"/><path class="cls-13" d="M85.9,88.07c0,.29,0,.67,0,.97h-.02c0-.41-.04-.81-.02-1.23h.02c0,.07.02.16.02.26Z"/><path class="cls-25" d="M85.86,81.9l-.02.89c-.07-.05-.14-.02-.21,0,0-.3.02-.59.02-.89h.21Z"/><path class="cls-29" d="M85.64,81.38c-.02.78,0,1.64-.07,2.38,0-.8.03-1.59.02-2.38h.05Z"/><polygon class="cls-31" points="85.91 82.09 85.85 82.09 85.9 80.49 85.95 80.49 85.91 82.09"/><path class="cls-4" d="M86.11,82.69c0,.32-.02.65-.02.97l-.21.04c0-.1.02-.3-.01-.37,0,0-.03,0-.03,0,0,.06,0,.12,0,.19-.08,0-.16,0-.24.04.02-.27.02-.48.02-.74.08-.02.14-.05.21,0v.44s.05,0,.05,0v-.52s.23-.04.23-.04Z"/><polygon class="cls-29" points="85.91 82.09 85.88 83.25 85.82 83.24 85.85 82.09 85.91 82.09"/><path class="cls-7" d="M86.37,83.24c0,.31,0,.62,0,.93l-.24-.04c0-.3,0-.6,0-.89h.24Z"/><path class="cls-29" d="M86.42,83.17c0,.5-.01.98-.02,1.49h-.02c0-.5,0-.99,0-1.49h.05Z"/><path class="cls-31" d="M86.42,82.98h-.05c0-.33.03-.64.02-.97h.02v.97Z"/><path class="cls-3" d="M86.42,82.98c0,.06,0,.12,0,.19h-.05c0-.06,0-.12,0-.19h.05Z"/><path class="cls-30" d="M86.09,83.65c0,.27,0,.55,0,.82l-.24.04c0-.27.03-.54.02-.82l.21-.04Z"/><path class="cls-24" d="M86.37,84.17c0,.24,0,.47,0,.71-.09-.02-.16.03-.24.07,0-.27,0-.55,0-.82l.24.04Z"/><path class="cls-24" d="M86.09,84.47c0,.26,0,.52,0,.78-.08-.04-.15-.1-.24-.07,0-.22,0-.45,0-.67l.24-.04Z"/><path class="cls-2" d="M86.14,84.69c0,.78,0,1.63,0,2.42l-.02.04c-.08-.78,0-1.65-.02-2.45h.05Z"/><path class="cls-7" d="M86.66,82.98c0,.27-.01.51-.02.78-.07-.06-.14,0-.21,0,0-.25,0-.5,0-.74l.24-.04Z"/><path class="cls-12" d="M82.93,81.12v.3c.01-.1.04-.21.05-.3h.21c0,.18-.02.39-.02.56l-.21.07s.01-.42-.05-.3c0,.2,0,.4,0,.59l-.24-.04c0-.29.01-.6.02-.89h.24Z"/><path class="cls-2" d="M83.45,81.38c0,.17,0,.36-.02.52,0,0,0,.71,0,.71h-.03c-.03-.13-.11-.06-.18-.07,0-.37.01-.74.02-1.11l.21-.04Z"/><path class="cls-29" d="M83.19,81.12c0-.08-.03-.22.05-.19,0,.92-.04,1.83-.05,2.75l-.05.04c0-.87,0-1.73.05-2.6Z"/><polygon class="cls-31" points="83.26 80.9 83.22 80.59 83.26 80.01 83.26 80.9"/><path class="cls-25" d="M83.5,81.79c.12-.05.13.07.21.11.02.4-.04.8-.02,1.19l-.21.04c0-.45.02-.89.02-1.34Z"/><path class="cls-32" d="M83.5,81.72c0,.06,0,.12,0,.19h-.07l.02-.19h.05Z"/><path class="cls-32" d="M84.07,81.12c0,.07.03.26-.05.22,0-.13-.06-.35,0-.45,0,.04.04.18.05.22Z"/><path class="cls-2" d="M84.25,81.53c0,.24,0,.5,0,.74-.08-.03-.15-.06-.24,0,0-.06,0-.12,0-.19h-.05c0,.1,0,.2,0,.3h-.21v-.85h.49Z"/><path class="cls-25" d="M83.97,82.39c-.02.27.04.57-.02.82h-.21c0-.28.01-.55.02-.82h.21Z"/><path class="cls-3" d="M83.74,82.83c0,.11,0,.22,0,.33h-.05c0-.11,0-.22,0-.33h.05Z"/><path class="cls-25" d="M85.05,82.13c0,.14.01.81-.02.93h-.24c0-.32.02-.65.02-.97l.24.04Z"/><path class="cls-7" d="M85.03,83.06c0,.26,0,.52,0,.78l-.24.04c0-.27,0-.55,0-.82h.24Z"/><path class="cls-7" d="M84.75,83.54c0,.25-.01.53.02.78-.02,0-.02.02-.02.04-.08-.04-.15-.1-.24-.07,0-.24.04-.5.02-.74h.21Z"/><path class="cls-30" d="M85.03,83.84c0,.23,0,.47,0,.71-.09-.02-.16.01-.24.07,0-.25,0-.5,0-.74l.24-.04Z"/><path class="cls-32" d="M84.8,84.32c0,.36,0,.72,0,1.08h-.05c.03-.18-.07-1.12.05-1.08Z"/><path class="cls-25" d="M85.31,81.83v.93l-.24-.04c0-.27.04-.57.02-.85l.21-.04Z"/><path class="cls-3" d="M85.38,81.76c0,.2-.02.4-.02.59l-.05-.07c0-.16-.02-.58.02-.71l.05.19Z"/><path class="cls-2" d="M85.6,81.68c0,.2,0,.4,0,.59-.08-.01-.15-.04-.24,0,0-.21.03-.42.02-.63l.21.04Z"/><path class="cls-4" d="M85.31,82.76c0,.37,0,.7-.02,1.08l-.21.04c0-.38,0-.77,0-1.15l.24.04Z"/><path class="cls-26" d="M85.08,82.87c.01.89-.03,1.78-.02,2.68h-.02c.02-.89-.04-1.79.02-2.68h.02Z"/><path class="cls-2" d="M81.85,81.35c-.01.41-.02.81-.02,1.23l-.24.04c.01-.42.03-.85.05-1.26h.21Z"/><path class="cls-12" d="M82.13,81.01c0,.2-.02.4-.02.59-.08-.06-.12-.1-.21-.04,0-.18,0-.37,0-.56.08-.03.16-.03.24,0Z"/><path class="cls-29" d="M81.9,81.01c.01.87-.05,1.73-.05,2.6h-.05c.02-.87.04-1.73.05-2.6.02,0,.03,0,.05,0Z"/><path class="cls-29" d="M81.62,81.87c-.04,1.1-.05,2.2-.05,3.31h-.05c.01-1.1.01-2.21.05-3.31.01,0,.03,0,.05,0Z"/><path class="cls-25" d="M82.63,82.16c0,.39,0,.79,0,1.19h-.24c0-.42,0-.84.02-1.26l.21.07Z"/><path class="cls-25" d="M82.37,82.16c0,.3-.03.6-.02.89l-.21-.04c0-.28.01-.59.02-.85h.21Z"/><path class="cls-29" d="M82.42,82.09c0,.26-.02.52-.02.78h-.05c.02-.38,0-.78.05-1.15l.02.37Z"/><path class="cls-3" d="M82.13,81.9c.04.2,0,.54,0,.78h-.05c0-.25.02-.54.02-.78h.02Z"/><path class="cls-29" d="M82.16,81.53c0,.13-.02.26-.02.37h-.02c0-.12,0-.25,0-.37h.05Z"/><path class="cls-4" d="M82.89,82.91c0,.28,0,.57,0,.85h-.24c0-.3.02-.6.02-.89l.21.04Z"/><path class="cls-25" d="M82.91,82.05v.22c-.05.16-.02.44-.02.63l-.21-.04c0-.28,0-.57,0-.85l.24.04Z"/><path class="cls-7" d="M82.63,83.35c0,.29,0,.51-.02.82l-.21.04c0-.28,0-.57,0-.85h.24Z"/><path class="cls-30" d="M82.89,83.76c0,.26-.02.51-.02.78h-.21c0-.26,0-.52,0-.78h.24Z"/><path class="cls-3" d="M82.65,83.84c0,.68,0,1.36,0,2.04h-.05c.01-.67-.03-1.39.02-2.04h.02Z"/><path class="cls-31" d="M84.28,81.94c0,.29,0,.6,0,.89h-.05c.01-.34.03-.66.02-1,.03.02.02.07.02.11Z"/><path class="cls-29" d="M84.25,81.53s.02-.14.05-.09c-.02.09.04.4-.05.35,0-.08,0-.18,0-.26Z"/><path class="cls-15" d="M84.02,81.31v.04s0,.08,0,.11h-.05s0-.13,0-.13l.05-.02Z"/><path class="cls-7" d="M84.23,83.13c0,.15.03.3.02.41-.06.12.01.4-.05.52h-.21c0-.31,0-.62,0-.93h.24Z"/><path class="cls-30" d="M84.49,83.95c0,.28,0,.57,0,.85h-.24c0-.28,0-.57,0-.85.08-.05.16-.05.24,0Z"/><path class="cls-29" d="M84.25,83.95c0,.33,0,.67,0,1h-.05c.01-.33-.04-.67.02-.98,0-.14-.03-.32.02-.43,0,.14,0,.27,0,.41Z"/><path class="cls-26" d="M84.49,83.95c0-.22,0-.45,0-.67.09-.16.04.75.02.82h-.02s0-.1,0-.15Z"/><path class="cls-26" d="M84.28,82.83c0,.22.01.45-.02.67-.01-.17-.03-.47-.02-.67h.05Z"/><path class="cls-20" d="M86.89,85.17c0,.25.02.55.02.82h-.24c0-.27,0-.55,0-.82h.21Z"/><path class="cls-28" d="M86.92,85.99c0,.28,0,.49,0,.78h-.24c0-.26,0-.52,0-.78h.24Z"/><path class="cls-20" d="M86.94,86.51c.03.17.02.47.02.67h-.02c0-.24-.04-.46-.02-.67h.02Z"/><path class="cls-26" d="M86.68,83.54c0,.71,0,1.41,0,2.12h-.05c0-.78-.02-1.57.02-2.34h.02c0,.07,0,.15,0,.22Z"/><path class="cls-32" d="M86.68,85.66c0,.43,0,.87,0,1.3h-.05c0-.43,0-.87,0-1.3h.05Z"/><path class="cls-20" d="M86.68,86.96c0,.11.02.21.02.33h-.07c0-.11,0-.22,0-.33h.05Z"/><path class="cls-22" d="M86.16,87.11c.06-.01.13,0,.19,0v.15c.07.02.03-.07.09-.1s.13-.02.19-.02c0,.19,0,.37,0,.56.02,0,.03,0,.05,0l-.02.22s-.02-.13-.02-.22c-.07,0-.14,0-.21,0,0-.11,0-.22,0-.33h-.05c0,.06,0,.12,0,.19h-.21v-.45Z"/><path class="cls-6" d="M86.37,88c0,.09-.01.28.05.3,0-.06,0-.12,0-.19l.24-.04c0,.12,0,.25,0,.37-.08-.02-.14.03-.21.07-.02-.12-.06-.16-.05,0l-.24.04c0-.19,0-.37,0-.56h.21ZM86.43,88.33v.04s.02-.02,0-.04Z"/><path class="cls-8" d="M86.63,87.7c.01.17.03.23.02.37l-.24.04c0-.14,0-.27,0-.41.07,0,.14,0,.21,0Z"/><path class="cls-13" d="M81.8,85.55c.01.19-.03.29-.03.5,0,.07.04.05.05.08.01.09,0,.31,0,.42-.09.05-.03-.31-.05-.41l-.21.04c0-.21,0-.42,0-.63h.24Z"/><path class="cls-28" d="M81.57,86.18l.21-.04c.02.09-.05.46.05.41,0,.05-.02.13-.02.22l-.24-.04c0-.19,0-.37,0-.56Z"/><path class="cls-20" d="M81.8,84.99c0,.19,0,.37,0,.56h-.24c0-.19,0-.37,0-.56h.24Z"/><path class="cls-30" d="M81.83,85.73c.02.71.06,1.53,0,2.23-.04-.6,0-1.25,0-1.83-.1-.05-.02-.32-.02-.4h.02Z"/><path class="cls-5" d="M82.09,87.63c0,.14,0,.27,0,.41h-.26s0-.05,0-.07c.04-.07.02-.23.02-.33h.24Z"/><path class="cls-13" d="M81.87,88.04c0,.25,0,.5,0,.74h-.02c0-.25-.03-.49-.02-.74h.05Z"/><path class="cls-14" d="M84.28,88.26c0,.15-.02.29-.02.45h-.21c0-.11-.02-.27-.02-.41l.26-.04Z"/><path class="cls-21" d="M84.51,88.48c0,.11,0,.22,0,.33h-.21c0-.09,0-.2,0-.3l.21-.04Z"/><path class="cls-13" d="M84.56,87.96c0,.36,0,.81.02,1.15h-.05c-.03-.36-.03-.68-.02-1.04,0-.17.03-.08.05-.11Z"/><path class="cls-8" d="M84.58,89.11c0,.28.01.56.02.84l-.05.05c0-.23,0-.66-.02-.89h.05Z"/><path class="cls-18" d="M84.3,88.52c0,.13,0,.28,0,.41h-.05c0-.23.01-.45.02-.67l.02.02c0,.08,0,.16,0,.24Z"/><path class="cls-14" d="M83.97,88.41c0,.11,0,.22,0,.33l-.21.04v-.37h.21Z"/><path class="cls-5" d="M83.97,87.52c0,.16,0,.32,0,.48h-.21v-.45c.06-.02.13-.07.21-.04Z"/><path class="cls-8" d="M84.23,87.89c0,.1.02.25.05.33,0,.01,0,.02,0,.04l-.26.04c0-.14,0-.27,0-.41h.21Z"/><path class="cls-6" d="M83.97,88c0,.14,0,.27,0,.41h-.21v-.41h.21Z"/><path class="cls-5" d="M84.23,87.55c0,.11,0,.22,0,.33h-.21c0-.11,0-.22,0-.33h.21Z"/><path class="cls-25" d="M84.02,87.55c0,.1,0,.2,0,.3h-.05c0-.18,0-.38,0-.56h.02c0,.1.02.21.02.26Z"/><path class="cls-28" d="M83.22,88.07c0,.24,0,.47,0,.71h-.02c-.04-.25-.02-.59-.02-.85h.02l.02.15Z"/><path class="cls-6" d="M83.43,88.07c0,.16.02.3.02.45l-.24.04c0-.16,0-.32,0-.48h.21Z"/><path class="cls-13" d="M83.48,87.74c0,.3,0,.6,0,.89h-.02c0-.29-.03-.59-.02-.89h.05Z"/><path class="cls-22" d="M83.67,86.88s0,.09.02.11c0,.18-.02.33,0,.52.07-.05.04-.23.05-.33h.21s.02.09.02.11c0,.07,0,.15,0,.22-.09-.02-.19.02-.26.07-.07.02-.16-.01-.24,0,0-.24,0-.47,0-.71h.19Z"/><path class="cls-8" d="M83.71,87.59c0,.25,0,.5,0,.74h-.24c0-.25,0-.5,0-.74.07-.01.16.02.24,0Z"/><path class="cls-14" d="M83.71,88.33c0,.15,0,.3,0,.45l-.21.04c-.03-.2-.03-.3-.02-.48h.24Z"/><path class="cls-13" d="M82.68,87.55c-.01.43.02.88.02,1.3h-.05c0-.47-.04-.93,0-1.41h.02s0,.07,0,.11Z"/><path class="cls-8" d="M82.7,88.85c0,.07,0,.15,0,.22h-.05c0-.07,0-.15,0-.22h.05Z"/><path class="cls-5" d="M83.15,87.37c0,.21.03.42.02.63h-.24c0-.21,0-.42,0-.63h.21Z"/><path class="cls-5" d="M82.89,87.55c0,.12,0,.25,0,.37h-.21c0-.12,0-.25,0-.37h.21Z"/><path class="cls-28" d="M82.86,86.44c0,.25.03.45.02.67h-.24c0-.22,0-.45,0-.67h.21Z"/><path class="cls-18" d="M83.15,86.88c0,.16,0,.32,0,.48h-.21c0-.12,0-.25,0-.37h-.05s0-.05,0-.07c.06-.1.18,0,.26-.04Z"/><path class="cls-22" d="M82.89,87.11c0,.15,0,.3,0,.45h-.21c0-.16-.03-.31-.02-.45h.24Z"/><path class="cls-21" d="M82.11,88.52c0,.17,0,.35,0,.52h-.21c-.02-.18-.03-.31-.02-.48l.24-.04Z"/><path class="cls-19" d="M84.8,88.7c0,.12,0,.25,0,.37h-.21c0-.08-.02-.19-.02-.3l.24-.07Z"/><path class="cls-19" d="M85.05,88.74c0,.13.02.25.02.37h-.24c0-.11,0-.22,0-.33l.21-.04Z"/><path class="cls-5" d="M84.84,88.78c0,.18.02.39-.01.56-.08-.19-.01-.48-.04-.71h.02s.02.08.02.15Z"/><path class="cls-8" d="M85.13,89.3c0,.13,0,.26,0,.39,0,.04.02.14-.02.13-.04-.18-.02-.37-.02-.56l.05.04Z"/><path class="cls-14" d="M85.13,89.11v.19l-.05-.04s0-.1,0-.15h.05Z"/><path class="cls-13" d="M86.16,87.7c0,.3,0,.59,0,.89h-.02c0-.29-.03-.6-.02-.89h.05Z"/><path class="cls-14" d="M86.66,88.44c0,.18.03.2.02.33h-.24c0-.08,0-.18,0-.26.07-.05.13-.1.21-.07Z"/><path class="cls-21" d="M82.65,88.48c0,.19,0,.37,0,.56h-.21c0-.18-.02-.34-.02-.52l.24-.04Z"/><path class="cls-19" d="M82.39,89.11l-.24-.04c0-.1,0-.2,0-.3l.21-.07c0,.14.02.27.02.41Z"/><path class="cls-6" d="M82.16,89.34c0,.3.08.72.04,1-.05.02-.03-.08-.04-.13,0-.29-.01-.58-.02-.87h.02Z"/><path class="cls-5" d="M82.16,88.78c0,.19,0,.37,0,.56h-.02c-.03-.25-.03-.46-.02-.71h.02s.02.07.02.15Z"/><path class="cls-8" d="M82.63,87.81c0,.24.02.45.02.67l-.24.04c0-.23,0-.47,0-.71h.21Z"/><path class="cls-18" d="M82.35,86.7c0,.14,0,.27,0,.41h-.24c0-.14,0-.3,0-.45l.24.04Z"/><path class="cls-8" d="M82.35,87.92c0,.15.02.3.02.45h-.24c0-.15,0-.3,0-.45h.21Z"/><path class="cls-18" d="M82.61,86.85c0,.13.02.24.02.37-.08,0-.16,0-.24.04,0-.15,0-.3,0-.45l.21.04Z"/><path class="cls-14" d="M82.37,88.37c0,.11,0,.22,0,.33l-.21.07c-.03-.18-.03-.24-.02-.41h.24Z"/><path class="cls-5" d="M82.13,87.59h.21c0,.11,0,.23,0,.33h-.21c0-.11,0-.22,0-.33Z"/><path class="cls-20" d="M82.13,87.59c0,.35,0,.69,0,1.04h-.02c-.02-.48-.03-.96-.02-1.45.02-.01.02-.04.02-.07h.02v.48Z"/><path class="cls-4" d="M82.39,86.77c-.01.08.04.89-.05.74,0-.25,0-.5,0-.74h.05Z"/><path class="cls-28" d="M82.65,87.22s.02.13.02.22h-.02c0-.1-.07-.08-.05-.22.01,0,.03,0,.05,0Z"/><path class="cls-22" d="M85.6,87c0,.18-.02.35-.02.52h-.24c0-.17,0-.35,0-.52.09-.01.17-.07.26,0Z"/><path class="cls-18" d="M85.29,86.7c0,.24,0,.45.02.71-.07-.02-.14-.06-.21,0,0,.56,0,1.14,0,1.7h-.02c-.03-.57-.03-1.13-.05-1.71.07.02.05-.06.05-.13,0-.19,0-.39,0-.58h.21Z"/><path class="cls-6" d="M85.31,87.96c0,.14,0,.27,0,.41l-.21.04c0-.14,0-.27,0-.41l.21-.04Z"/><path class="cls-28" d="M85.83,86.25c0,.23,0,.47,0,.71h-.21l-.02.04c-.09-.07-.17-.01-.26,0,0-.2,0-.4,0-.59l.26-.04v-.11s.24,0,.24,0Z"/><path class="cls-5" d="M85.83,87.37c0,.2.03.39.02.59-.08-.04-.15-.04-.24,0,0-.2,0-.4,0-.59h.21Z"/><path class="cls-22" d="M85.83,86.96c0,.14,0,.27,0,.41h-.21v-.41h.21Z"/><path class="cls-8" d="M85.86,87.96c0,.12,0,.25,0,.37h-.21c.01-.14-.03-.26-.02-.37.08-.04.15-.04.24,0Z"/><path class="cls-14" d="M85.86,88.33c0,.15.02.27.02.41h-.24c0-.14,0-.27,0-.41h.21Z"/><path class="cls-5" d="M85.31,87.4c0,.19,0,.37,0,.56l-.21.04c0-.2,0-.39,0-.59.07-.07.13-.02.21,0Z"/><path class="cls-15" d="M85.34,85.92c0,.36,0,.72,0,1.08-.02,0-.03,0-.05,0,0-.35,0-.72,0-1.08h.05Z"/><path class="cls-6" d="M86.11,88.04c0,.18.02.35.02.52l-.24.04c0-.17,0-.35,0-.52l.21-.04Z"/><path class="cls-5" d="M86.09,87.55c.03.2.02.3.02.48l-.21.04c-.02-.2-.03-.33-.02-.52h.21Z"/><path class="cls-4" d="M85.86,86.14c.05.53,0,1.13.02,1.67h-.02c-.06-.55.02-1.13-.05-1.67h.05Z"/><path class="cls-7" d="M85.57,83.32c0,.15,0,.3,0,.45.05-.01.02-.16.02-.22.08-.03.15-.04.24-.04,0,.25,0,.5,0,.74h-.24v-.45h-.05v.41s-.21,0-.21,0c0-.26.02-.65,0-.89.08-.05.16-.05.24,0Z"/><path class="cls-25" d="M85.6,82.28c0,.34-.03.69-.02,1.04-.08-.05-.15-.05-.24,0,0-.02-.01-.03-.02-.04,0-.1.05-.9.05-1,.08-.04.15-.01.24,0Z"/><path class="cls-26" d="M85.88,83.5c-.02.88-.03,1.76-.02,2.64h-.05c.05-.88.01-1.76.02-2.64.02,0,.03,0,.05,0Z"/><path class="cls-29" d="M85.83,83.5c0-.06,0-.12,0-.19.07-.03.04.1.05.19-.02,0-.03,0-.05,0Z"/><path class="cls-30" d="M86.63,83.76c0,.28,0,.57,0,.85h-.24c0-.29.02-.57.02-.85.08,0,.14-.06.21,0Z"/><path class="cls-24" d="M86.63,84.62c0,.27,0,.55,0,.82h-.24c0-.27,0-.55,0-.82h.24Z"/><path class="cls-26" d="M86.4,85.43c0,.21,0,.42,0,.63h-.02c0-.47,0-.94,0-1.41h.02c0,.26,0,.52,0,.78Z"/><path class="cls-20" d="M86.37,84.88c0,.2,0,.4,0,.59l-.24.07c0-.2,0-.4,0-.59.08-.04.15-.1.24-.07Z"/><path class="cls-20" d="M86.09,85.25c0,.19,0,.37,0,.56h-.24c0-.21,0-.42,0-.63.09-.02.16.03.24.07Z"/><path class="cls-18" d="M86.37,86.62c0,.15,0,.3,0,.45.07-.07.04-.29.05-.41h.21c0,.16,0,.32,0,.48-.06,0-.13-.01-.19.02s-.02.12-.09.1v-.15c-.07,0-.14,0-.21,0v-.48h.24Z"/><path class="cls-28" d="M86.09,86.36c0,.21-.02.52,0,.71h-.21c0-.23,0-.47,0-.71h.21Z"/><path class="cls-13" d="M86.37,85.47c0,.21,0,.42,0,.63l-.24.04v-.59l.24-.07Z"/><path class="cls-13" d="M86.09,85.81c0,.19,0,.37,0,.56h-.21c-.02-.23-.03-.35-.02-.56h.24Z"/><path class="cls-28" d="M86.37,86.1c0,.17,0,.35,0,.52h-.24v-.48l.24-.04Z"/><path class="cls-22" d="M86.09,87.07s.03.05.02.07c-.05.11-.01.28-.02.41h-.21c0-.16,0-.32,0-.48h.21Z"/><path class="cls-13" d="M86.16,87.33h-.07c0-.09,0-.17.05-.22,0,0,.02,0,.02,0v.22Z"/><path class="cls-2" d="M83.17,81.68c0,.34-.02.71-.02,1.04h-.21c0-.11,0-.22,0-.33h-.05c.05-.26.07-.34.07-.63l.21-.07Z"/><path class="cls-31" d="M82.91,82.05c0-.2,0-.4,0-.59.1-.15.02.77,0,.82v-.22Z"/><path class="cls-4" d="M83.22,82.54c.07.01.15-.05.18.07h.03c0,.3,0,.6,0,.89h-.24c0-.32.02-.65.02-.97Z"/><path class="cls-3" d="M83.5,81.9c0,.27-.02.54-.02.82h-.05c0-.06,0-.74,0-.82h.07Z"/><path class="cls-30" d="M83.43,83.5c0,.32-.03.62-.02.93l-.24-.07c-.01-.29.02-.55.02-.85h.24Z"/><path class="cls-30" d="M83.15,83.65c0,.27,0,.55,0,.82l-.24.04c0-.3,0-.6,0-.89l.24.04Z"/><path class="cls-4" d="M83.15,82.72c0,.31,0,.62,0,.93l-.24-.04c.02-.28.03-.6.02-.89h.21Z"/><path class="cls-2" d="M83.17,83.91h-.02c0-.06,0-.12,0-.19l.05-.04c0,.09-.02.19-.02.22Z"/><path class="cls-7" d="M83.69,83.09c0,.41,0,.82,0,1.23h-.24c0-.4.02-.79.02-1.19l.21-.04Z"/><path class="cls-29" d="M83.48,82.72c0,.5-.02.99-.02,1.49h-.05c.02-.48.03-1,.02-1.49h.05Z"/><path class="cls-25" d="M84.25,82.28c-.01.28-.03.57-.02.85h-.24c0-.28.03-.56.02-.85.08-.06.15-.03.24,0Z"/><path class="cls-29" d="M83.97,82.39c0-.1,0-.2,0-.3h.05c0,.35-.01.7-.02,1.04h-.02c0-.25,0-.5,0-.74Z"/><path class="cls-7" d="M83.95,83.21c0,.35,0,.69,0,1.04l-.24-.04c0-.33.02-.67.02-1h.21Z"/><path class="cls-26" d="M83.99,84.06c0,.74,0,1.48,0,2.23h-.05c.02-1.04-.04-2.14.02-3.16h.02c0,.31,0,.62,0,.93Z"/><path class="cls-29" d="M83.74,83.17c-.02.66-.03,1.31-.02,1.97h-.02c0-.66,0-1.31,0-1.97h.05Z"/><path class="cls-24" d="M84.75,84.36c-.02.15,0,.49,0,.67-.08-.06-.14-.1-.24-.07,0-.22,0-.45,0-.67.09-.02.16.03.24.07Z"/><path class="cls-29" d="M84.51,84.28c0,.32,0,.64,0,.97h-.02c0-.38,0-.77,0-1.15h.02v.19Z"/><path class="cls-24" d="M85.03,84.54c0,.19,0,.37,0,.56h-.24c0-.16,0-.32,0-.48.08-.06.14-.1.24-.07Z"/><path class="cls-20" d="M84.75,85.03c0,.21,0,.42,0,.63-.09-.08-.14-.08-.24-.04,0-.22,0-.45,0-.67.09-.02.16.01.24.07Z"/><path class="cls-20" d="M85.03,85.1c0,.17,0,.35,0,.52-.09-.02-.16.01-.24.07,0-.2,0-.4,0-.59h.24Z"/><path class="cls-4" d="M84.8,85.4c0,.19,0,.52,0,.71h-.05c0-.24,0-.47,0-.71h.05Z"/><path class="cls-31" d="M85.36,82.35l-.05.85c0-.25,0-.67,0-.93l.05.07Z"/><path class="cls-30" d="M85.29,83.84c0,.32,0,.64,0,.97l-.24-.04c0-.3.02-.6.02-.89l.21-.04Z"/><path class="cls-26" d="M85.34,83.32c.02.85-.01,1.75,0,2.6h-.05c0-.87-.02-1.77.02-2.64.01,0,.02.02.02.04Z"/><path class="cls-20" d="M85.29,84.8c0,.25,0,.5,0,.74h-.24c0-.26,0-.52,0-.78l.24.04Z"/><path class="cls-3" d="M85.05,86.18c0,.1,0,.2,0,.3h-.02c0-.31,0-.62,0-.93h.02c0,.21,0,.42,0,.63Z"/><path class="cls-4" d="M81.83,82.57c0,.37-.02.74-.02,1.11-.09-.04-.14-.11-.24-.04,0-.34.02-.7.02-1.04l.24-.04Z"/><path class="cls-2" d="M82.11,81.61c0,.29-.01.56-.02.85l-.21-.04c0-.29.01-.57.02-.85.09-.07.13-.02.21.04Z"/><path class="cls-4" d="M82.09,82.46c0,.27,0,.55,0,.82h-.24c0-.29.02-.57.02-.85l.21.04Z"/><path class="cls-7" d="M82.09,83.28c0,.27-.02.56-.02.82-.07-.01-.04-.07-.06-.07-.05-.02-.12.01-.17,0,.03-.27.03-.48.02-.74h.24Z"/><path class="cls-25" d="M81.85,83.61s0,.07,0,.11h-.05s0-.07,0-.11h.05Z"/><path class="cls-30" d="M81.8,83.69c0,.23,0,.47,0,.71h-.24c0-.25,0-.5,0-.74.09-.07.15,0,.24.04Z"/><path class="cls-24" d="M81.8,84.39c0,.2,0,.4,0,.59h-.24c0-.2,0-.4,0-.59h.24Z"/><path class="cls-26" d="M82.39,82.87c0,.5,0,.99,0,1.49-.07.15.02.41-.05.56,0-.68,0-1.36,0-2.04h.05Z"/><path class="cls-7" d="M82.35,83.06c0,.28,0,.57,0,.85h-.24c0-.3.02-.59.02-.89l.21.04Z"/><path class="cls-29" d="M82.13,82.69c0,.47-.03.94-.02,1.41-.02,0-.03,0-.05,0,.01-.45.03-.95.02-1.41h.05Z"/><path class="cls-29" d="M82.91,83.61c0,.52,0,1.04,0,1.56-.01,0-.03,0-.05,0-.01-.57.02-1.14.02-1.71h.02s0,.1,0,.15Z"/><path class="cls-26" d="M82.89,82.39h.05c0,.32,0,.64,0,.97h-.05c0-.32-.01-.65,0-.97Z"/><path class="cls-32" d="M82.93,83.35c0,.06-.02.11-.02.11h-.02v-.11h.05Z"/><path class="cls-24" d="M82.61,84.17c0,.23,0,.47,0,.71h-.21c0-.11,0-.56,0-.67l.21-.04Z"/><path class="cls-24" d="M82.86,84.54c0,.23,0,.47,0,.71l-.21-.04c0-.22,0-.45,0-.67h.21Z"/><path class="cls-20" d="M82.61,84.88c0,.25,0,.5,0,.74-.1.03-.14-.02-.21-.07v-.67h.21Z"/><path class="cls-13" d="M82.61,85.62c0,.21,0,.42,0,.63h-.24c0-.23,0-.47,0-.71.09.02.12.12.24.07Z"/><path class="cls-20" d="M82.86,85.25c0,.2,0,.4,0,.59h-.21c0-.21,0-.42,0-.63l.21.04Z"/><path class="cls-13" d="M82.86,85.84c0,.2,0,.4,0,.59h-.21c0-.2,0-.4,0-.59h.21Z"/><path class="cls-2" d="M82.65,85.88c0,.45,0,.89,0,1.34h-.02c-.04-.44-.02-.89-.02-1.34h.05Z"/><path class="cls-24" d="M84.21,84.06c0,.31,0,.62,0,.93h-.21c0-.31,0-.62,0-.93h.21Z"/><path class="cls-20" d="M84.49,84.8c0,.3,0,.59,0,.89h-.24c0-.3,0-.59,0-.89h.24Z"/><path class="cls-3" d="M84.25,84.95c0,.63,0,1.26,0,1.9h-.02c-.06-.61,0-1.27-.02-1.9h.05Z"/><path class="cls-13" d="M86.63,85.43c0,.22,0,.45,0,.67-.08-.04-.15-.04-.24,0,0-.22,0-.45,0-.67h.24Z"/><path class="cls-28" d="M86.63,86.1c0,.19,0,.37,0,.56h-.21c0-.19-.02-.37-.02-.56.08-.04.15-.04.24,0Z"/><path class="cls-5" d="M86.37,87.55c0,.14,0,.3,0,.45h-.21c0-.14,0-.3,0-.45h.21Z"/><path class="cls-24" d="M86.37,87.55c0-.06,0-.12,0-.19h.05c0,.31,0,.62,0,.93-.06-.02-.04-.2-.05-.3,0-.14,0-.3,0-.45Z"/><path class="cls-28" d="M86.16,87.33v.37h-.05c-.02-.06-.03-.27-.02-.37h.07Z"/><path class="cls-22" d="M86.43,88.33s.02.02,0,.04v-.04Z"/><path class="cls-26" d="M81.85,83.73c-.05.65-.01,1.35-.02,2.01h-.02c0-.67,0-1.34,0-2.01h.05Z"/><path class="cls-13" d="M82.06,85.51v.74c-.08-.03-.13-.11-.21-.04,0-.26-.03-.47-.02-.71h.24Z"/><path class="cls-28" d="M82.06,86.25s.02,0,.02,0v.52l-.24.04c0-.2,0-.4,0-.59.09-.07.13,0,.21.04Z"/><path class="cls-18" d="M82.09,86.77c0,.15,0,.3,0,.45h-.24c0-.14,0-.27,0-.41l.24-.04Z"/><path class="cls-22" d="M82.09,87.22c0,.14,0,.27,0,.41h-.24c0-.14,0-.27,0-.41h.24Z"/><path class="cls-6" d="M82.09,88.04c0,.17.02.32.02.48l-.24.04c0-.17,0-.35,0-.52h.21Z"/><path class="cls-6" d="M84.51,88.07c0,.13,0,.28,0,.41l-.21.04c0-.08,0-.16,0-.24l-.02-.02s0-.1,0-.15l.24-.04Z"/><path class="cls-5" d="M84.77,87.4c0,.16,0,.32,0,.48-.06.03-.23-.08-.21.07-.02.03-.04-.06-.05.11l-.24.04c0-.2,0-.4,0-.59l.21.04.05.33c0-.17,0-.35,0-.52l.24.04Z"/><path class="cls-8" d="M84.77,87.89c0,.17.02.33.02.48h-.24v-.41c-.01-.16.15-.04.21-.07Z"/><path class="cls-14" d="M84.8,88.37c0,.11,0,.22,0,.33l-.24.07c0-.14,0-.27,0-.41h.24Z"/><path class="cls-30" d="M84.28,87.03c0,.4,0,.79,0,1.19-.1-.43-.03-.92-.05-1.37h.02c0,.07.02.14.02.19Z"/><path class="cls-22" d="M84.23,87.07c0,.16,0,.32,0,.48h-.21c-.02-.11-.03-.34-.02-.48h.24Z"/><path class="cls-13" d="M83.99,87.18s0,.07,0,.11h-.02s-.04-.07-.02-.11h.05Z"/><path class="cls-5" d="M83.43,87.63c0,.15,0,.3,0,.45h-.21c-.03-.09-.03-.34-.02-.45h.24Z"/><path class="cls-30" d="M83.19,86.74c0,.39,0,.8,0,1.19h-.02c-.03-.48-.03-.96-.02-1.45h.02s.02.2.02.26Z"/><path class="cls-20" d="M83.48,87.22c0,.17,0,.35,0,.52h-.05c0-.17,0-.36,0-.52h.05Z"/><path class="cls-28" d="M83.69,86.25c0,.24,0,.38-.02.63h-.19c0-.18-.02-.4-.02-.59l.24-.04Z"/><path class="cls-18" d="M83.95,86.85c0,.11.04.22.02.33h-.24c0-.11,0-.22,0-.33h.21Z"/><path class="cls-24" d="M83.74,86.85c-.02.19.06.55-.05.67-.03-.31,0-.54.02-.85.04.03.02.13.02.19Z"/><path class="cls-12" d="M83.45,86.29c0,.32.03.62.02.93h-.05c.02-.31-.04-.68.02-.97,0,.01,0,.02,0,.04Z"/><path class="cls-13" d="M83.71,86.62c0,.13-.02.27-.02.37-.06-.08,0-.31,0-.37h.02Z"/><path class="cls-3" d="M82.91,85.17c0,.52,0,1.19,0,1.71,0,0-.01.03-.02.04-.04-.56-.02-1.18-.02-1.75.02,0,.03,0,.05,0Z"/><path class="cls-28" d="M83.15,86.29c0,.2,0,.4,0,.59-.07.01-.17-.02-.24,0v-.59h.24Z"/><path class="cls-14" d="M85.05,88.44c0,.1,0,.2,0,.3l-.21.04c-.02-.15-.03-.17-.02-.3l.02-.04h.21Z"/><path class="cls-13" d="M84.82,87.74c0,.28,0,.6,0,.89h-.02c0-.31-.03-.61-.02-.93.02,0,.05,0,.05.04Z"/><path class="cls-28" d="M82.35,86.07c0,.21,0,.42,0,.63l-.24-.04c0-.19-.02-.42.05-.58l.19-.02Z"/><path class="cls-3" d="M82.37,86.25c0,.17.02.34.02.52h-.05c0-.41,0-.82,0-1.23h.02c0,.23,0,.47,0,.71Z"/><path class="cls-2" d="M82.11,86.66c-.02.16.04.39-.02.52,0-.25,0-.67,0-.93h.02c-.01.11,0,.28,0,.41Z"/><path class="cls-28" d="M82.61,86.25c0,.2,0,.4,0,.59l-.21-.04c0-.19-.02-.38-.02-.56h.24Z"/><path class="cls-28" d="M85.29,86.18c0,.17,0,.35,0,.52h-.21c0-.06.01-.15-.02-.19,0-.11,0-.22,0-.33h.24Z"/><path class="cls-5" d="M85.03,87.26c0,.15,0,.3,0,.45l-.21.04s0-.04-.02-.04v-.45h.24Z"/><path class="cls-6" d="M85.05,88.07c0,.12,0,.25,0,.37h-.24c0-.12,0-.25,0-.37h.24Z"/><path class="cls-8" d="M85.03,87.7c0,.13.02.26.02.37h-.24c0-.1.01-.25,0-.33l.21-.04Z"/><path class="cls-30" d="M85.08,86.7c0,.19,0,.39,0,.58,0,.07.02.15-.05.13,0-.31,0-.56.02-.89.04.03.02.13.02.19Z"/><path class="cls-13" d="M85.55,85.77v.93h.05v-.33l-.26.04c0-.2,0-.4,0-.59l.21-.04Z"/><path class="cls-13" d="M85.83,85.66c0,.18-.06.42,0,.59h-.24v-.56s.24-.04.24-.04Z"/><rect class="cls-26" x="85.55" y="85.32" width=".05" height="1.38"/><path class="cls-13" d="M85.29,85.55c0,.2,0,.43,0,.63h-.24c0-.21,0-.42,0-.63h.24Z"/><path class="cls-24" d="M85.55,84.21v.85s-.21,0-.21,0c0-.28,0-.57,0-.85h.21Z"/><path class="cls-24" d="M85.83,84.25c0,.23,0,.47,0,.71h-.24v-.71s.24,0,.24,0Z"/><rect class="cls-25" x="85.55" y="83.8" width=".05" height=".56"/><path class="cls-20" d="M85.83,84.95c0,.23,0,.47,0,.71l-.24.04v-.74s.24,0,.24,0Z"/><path class="cls-15" d="M86.4,86.1c-.01.3.09.71-.02.97,0-.33,0-.67,0-1h.02s0,.02,0,.04Z"/><path class="cls-24" d="M83.41,84.43c0,.22,0,.45,0,.67l-.24-.04c0-.23,0-.47,0-.71l.24.07Z"/><path class="cls-15" d="M83.45,84.21c0,.57,0,1.14,0,1.71l-.05-.04c0-.56,0-1.12,0-1.67h.05Z"/><path class="cls-26" d="M83.17,84.36c0,.34,0,.73,0,1.08h-.02c0-.51,0-1.02,0-1.52h.02c0,.15,0,.3,0,.45Z"/><path class="cls-24" d="M83.15,84.47c0,.23,0,.47,0,.71-.1-.03-.14-.02-.24,0,0-.22,0-.45,0-.67l.24-.04Z"/><path class="cls-24" d="M83.69,84.32c0,.26,0,.52,0,.78l-.24-.04c0-.25,0-.5,0-.74h.24Z"/><path class="cls-24" d="M83.95,84.25c0,.27,0,.55,0,.82h-.24c0-.28,0-.57,0-.85l.24.04Z"/><path class="cls-20" d="M84.21,84.99c0,.26,0,.52,0,.78h-.21c0-.26,0-.53,0-.78h.21Z"/><path class="cls-20" d="M83.95,85.06c0,.22,0,.45,0,.67h-.24c0-.22,0-.45,0-.67h.24Z"/><path class="cls-13" d="M84.21,85.77c0,.23,0,.47,0,.71-.07-.05-.14-.02-.21,0,0-.24,0-.47,0-.71h.21Z"/><path class="cls-13" d="M83.95,85.73c0,.19,0,.37,0,.56h-.24c0-.19,0-.37,0-.56h.24Z"/><path class="cls-25" d="M83.99,86.29c0,.3,0,.59,0,.89h-.02c-.01-.3-.04-.59-.02-.89h.05Z"/><path class="cls-20" d="M83.69,85.1c0,.19,0,.37,0,.56h-.24c0-.2,0-.4,0-.59l.24.04Z"/><path class="cls-26" d="M83.71,85.73c0,.3,0,.59,0,.89h-.02c0-.49,0-.99,0-1.49h.02c0,.2,0,.4,0,.59Z"/><path class="cls-26" d="M84.51,85.62c0,.24,0,.47,0,.71h-.02c0-.36,0-.72,0-1.08h.02c0,.12,0,.25,0,.37Z"/><path class="cls-13" d="M84.75,85.66c0,.19,0,.37,0,.56l-.24-.04c0-.19,0-.37,0-.56.1-.04.15-.04.24.04Z"/><path class="cls-13" d="M85.03,85.62c0,.2,0,.4,0,.59l-.24.04v-.56c.08-.06.14-.1.24-.07Z"/><path class="cls-12" d="M84.8,86.1v1.11h-.02c-.03-.35-.03-.77-.02-1.11h.05Z"/><path class="cls-20" d="M85.55,85.06v.71s-.21.04-.21.04c0-.25,0-.5,0-.74h.21Z"/><path class="cls-28" d="M85.03,86.22c.02.2-.04.34-.02.56-.06-.02-.15.01-.21,0v-.52l.24-.04Z"/><path class="cls-20" d="M85.05,86.48c0,.11-.02.27-.02.33-.01,0-.02-.04-.02-.04-.02-.1.02-.23.02-.3h.02Z"/><path class="cls-30" d="M81.83,84.02c.05.01.12-.02.17,0,.02,0,0,.06.06.07,0,.22,0,.45,0,.67h-.24c0-.25,0-.5,0-.74Z"/><path class="cls-24" d="M82.35,84.54c0,.24,0,.46-.02.71-.08-.03-.14-.03-.21,0,0-.24,0-.47,0-.71h.24Z"/><path class="cls-30" d="M82.35,83.91c0,.21,0,.42,0,.63h-.24c0-.21,0-.42,0-.63h.24Z"/><path class="cls-4" d="M82.39,84.88v.67s-.03,0-.05,0c-.03-.15-.02-.46,0-.63.07-.15-.02-.41.05-.56v.52Z"/><path class="cls-2" d="M82.11,84.1c0,.07,0,.15,0,.22h-.05c0-.07,0-.15,0-.22.02,0,.03,0,.05,0Z"/><path class="cls-13" d="M84.49,85.69c0,.25,0,.5,0,.74l-.24.04c0-.26,0-.52,0-.78h.24Z"/><path class="cls-28" d="M84.21,86.48v.24c.02.13.03.22.02.35h-.24c0-.2,0-.4,0-.59.08-.02.14-.05.21,0Z"/><path class="cls-28" d="M84.49,86.44c0,.2,0,.4,0,.59-.08-.02-.14-.05-.21,0-.03-.17-.02-.38-.02-.56l.24-.04Z"/><path class="cls-20" d="M82.06,84.77c0,.25,0,.5,0,.74h-.24c0-.25,0-.5,0-.74h.24Z"/><path class="cls-20" d="M82.32,85.25c.03.31.02.52.02.82l-.19.02s-.04.15-.05.17c-.01,0-.03,0-.05,0v-.15c.06.07.04.04.05-.06,0-.26,0-.54,0-.8.08-.03.14-.03.21,0Z"/><path class="cls-12" d="M82.11,85.25c0,.26,0,.54,0,.8,0,.09.02.12-.05.06,0-.32,0-.64,0-.97l.05-.04s0,.1,0,.15Z"/><path class="cls-18" d="M84.75,86.77l.02.45s0,.14,0,.19l-.24-.04c0-.2,0-.4,0-.59h.21Z"/><path class="cls-22" d="M84.49,87.03c0,.17,0,.35,0,.52l-.21-.04c0-.16,0-.32,0-.48.07-.05.14-.02.21,0Z"/><path class="cls-4" d="M84.54,86.55c0,.45,0,.89,0,1.34-.08-.43-.04-.9-.05-1.34h.05Z"/><path class="cls-30" d="M84.8,87.22v.48h-.02c0-.15,0-.28-.02-.43,0-.02.01-.04.02-.06h.02Z"/><path class="cls-22" d="M83.43,87.11c0,.17,0,.34,0,.52h-.24c0-.17,0-.35,0-.52h.24Z"/><path class="cls-28" d="M83.41,86.18s.03.04.05.04c0,.01,0,.02,0,.04-.04.11-.02.31-.02.45l-.24.04v-.17c-.04-.14-.02-.27-.02-.43.08,0,.16,0,.24.04Z"/><path class="cls-18" d="M83.43,86.7c0,.14,0,.27,0,.41h-.24c0-.12,0-.25,0-.37l.24-.04Z"/><path class="cls-3" d="M83.17,85.66c0,.27,0,.55,0,.82h-.02c0-.35,0-.69,0-1.04h.02c0,.07,0,.15,0,.22Z"/><path class="cls-13" d="M83.69,85.66c0,.2,0,.4,0,.59l-.24.04c0-.21,0-.42,0-.63h.24Z"/><path class="cls-28" d="M83.95,86.29c0,.18,0,.37,0,.56h-.21c0-.06.01-.15-.02-.19,0-.12,0-.25,0-.37h.24Z"/><path class="cls-13" d="M83.15,85.66c0,.21,0,.42,0,.63h-.24v-.63h.24Z"/><path class="cls-20" d="M83.15,85.17c0,.16,0,.32,0,.48h-.24c0-.16,0-.32,0-.48.09-.02.14-.03.24,0Z"/><path class="cls-5" d="M84.82,88.48s0-.02,0-.04h.02l-.02.04Z"/><path class="cls-18" d="M85.01,86.77s0,.04.02.04c0,.15,0,.3,0,.45h-.24v-.48c.06.01.15-.02.21,0Z"/><rect class="cls-29" x="85.55" y="84.36" width=".05" height=".97"/><path class="cls-20" d="M83.41,85.1c0,.19,0,.37,0,.56h-.24c0-.15,0-.45,0-.59l.24.04Z"/><path class="cls-13" d="M83.41,85.66v.52c-.08-.05-.16-.04-.24-.04,0-.16,0-.32,0-.48h.24Z"/><path class="cls-20" d="M83.45,85.92c0,.09,0,.21,0,.3-.02,0-.03-.03-.05-.04v-.3l.05.04Z"/><path class="cls-28" d="M84.75,86.22c0,.19,0,.37,0,.56h-.21c.01-.21-.03-.41-.02-.59l.24.04Z"/><path class="cls-30" d="M84.54,86.55h-.05c0-.07,0-.15,0-.22h.02s.02.13.02.22Z"/><path class="cls-3" d="M82.11,84.32c0,.26,0,.52,0,.78l-.05.04c0-.27,0-.55,0-.82h.05Z"/><path class="cls-17" d="M87.93,83.8c.07.94.07,1.89,0,2.82h-.07c-.06-.94-.07-1.89,0-2.82h.07ZM87.93,84.65c-.11,0-.09.42-.04.52.06-.15.03-.35.04-.52Z"/><path class="cls-30" d="M87.93,84.65c0,.17.03.37-.04.52-.05-.1-.08-.51.04-.52Z"/></svg>